<svg width="74" height="73" viewBox="0 0 74 73" fill="none" xmlns="http://www.w3.org/2000/svg">
<g id="Frame 35">
<path id="Vector" d="M73.53 36.5C73.53 43.7107 71.4398 50.4361 67.8231 56.1045C66.4923 58.1949 64.9579 60.1287 63.2435 61.8981C62.7973 62.36 62.3432 62.8063 61.8735 63.2369C60.6132 64.4113 59.2666 65.4917 57.8419 66.4861C55.7125 67.9658 53.4188 69.2263 50.992 70.2363C47.1952 71.8099 43.0697 72.7573 38.7405 72.9609C38.1769 72.9843 37.6054 73 37.0339 73C36.7521 73 36.4625 73 36.1728 72.9922C31.8907 72.8904 27.7886 72.0605 23.9996 70.6042C20.0071 69.0854 16.3591 66.8775 13.1808 64.1294C13.032 64.0042 12.8833 63.8711 12.7424 63.738C11.8186 62.9237 10.9497 62.0625 10.1198 61.1543C9.82236 60.8255 9.52489 60.4967 9.24306 60.16C3.80231 53.787 0.530029 45.5271 0.530029 36.5C0.530029 16.3397 16.8758 0 37.0339 0C57.1921 0 73.53 16.3397 73.53 36.5Z" fill="#B7C1FA"/>
<path id="Vector_2" d="M23.9995 70.6043C20.007 69.0854 16.359 66.8775 13.1806 64.1295C13.0319 64.0042 12.8831 63.8711 12.7422 63.738C11.8185 62.9238 10.9495 62.0625 10.1197 61.1543C9.82222 60.8255 9.52474 60.4967 9.24292 60.16C12.1238 57.0596 15.5761 53.419 19.6391 49.2774C19.7643 49.1443 19.8974 49.019 20.0305 48.8937C21.2909 47.6645 22.3164 46.9834 23.1462 46.7328C29.0567 44.9634 25.1972 64.9594 23.9995 70.6043Z" fill="#7772D3"/>
<path id="Vector_3" d="M61.8733 63.2369C60.613 64.4113 59.2665 65.4917 57.8417 66.4861C55.7124 67.9658 53.4186 69.2263 50.9918 70.2363C47.195 71.81 43.0695 72.7573 38.7404 72.9609C38.1767 72.9843 37.6052 73 37.0338 73C36.7519 73 36.4623 73 36.1726 72.9922C31.8905 72.8904 27.7884 72.0605 23.9995 70.6043C20.007 69.0854 16.3589 66.8775 13.1806 64.1295C13.0318 64.0042 12.8831 63.8711 12.7422 63.738C13.9243 59.0483 16.0458 52.918 19.639 49.2774C19.7643 49.1443 19.8974 49.019 20.0304 48.8937C20.9699 48.0325 22.0267 47.3122 23.1462 46.7328C29.8473 43.2723 38.85 44.4389 38.85 44.4389C38.85 44.4389 41.0576 44.4702 44.1654 45.3784C44.1654 45.3784 44.1889 45.3784 44.2281 45.394C44.2672 45.4097 44.322 45.4254 44.3846 45.4489C47.4456 46.3414 51.3285 48.0951 54.8434 51.4461C55.3053 51.8845 55.7593 52.3543 56.2056 52.8475C58.6637 55.5799 60.5112 59.3771 61.8733 63.2369Z" fill="#7772D3"/>
<path id="Vector_4" d="M40.5881 38.6609L40.3533 45.6759C40.3533 45.6759 38.8737 47.6723 34.2706 47.9542C30.8417 48.1656 29.6675 47.461 29.6675 47.461L30.2624 43.9143L30.8496 40.4538L39.1868 38.9192L40.5881 38.6609Z" fill="#F27E64"/>
<path id="Vector_5" d="M39.1946 38.9349C39.1711 39.1463 39.085 39.3968 38.9519 39.6865C37.1122 43.5698 32.2899 44.3058 30.3093 44.4389L30.8651 40.5712L39.1946 38.9349Z" fill="black"/>
<path id="Vector_6" d="M29.5108 22.6422C29.5108 22.6422 25.1739 32.3897 26.6769 37.8936C28.18 43.3976 33.1902 42.5677 36.1885 41.5264C39.1868 40.4851 40.5959 38.6609 40.5959 38.6609C40.5959 38.6609 43.3828 39.6317 45.2773 37.0402C47.1639 34.4487 46.0366 31.458 44.4396 30.7612C42.8505 30.0644 40.9403 31.2074 40.9403 31.2074L42.4512 28.3732C42.4512 28.3732 36.2824 13.8891 29.5187 22.6422H29.5108Z" fill="#F27E64"/>
<path id="Vector_7" d="M29.8083 34.2295C29.6439 34.2295 29.4873 34.1199 29.4325 33.9555C28.7514 31.7633 30.3954 30.3227 30.4658 30.2601C30.6302 30.1192 30.8729 30.1348 31.0138 30.2992C31.1547 30.4637 31.1391 30.7064 30.9747 30.8473C30.9199 30.8943 29.6517 32.0295 30.1762 33.7206C30.2388 33.9242 30.1214 34.1434 29.9179 34.2139C29.8787 34.2295 29.8396 34.2295 29.8004 34.2295H29.8083Z" fill="black"/>
<path id="Vector_8" d="M41.3552 35.8737C41.2613 35.8737 41.1595 35.8345 41.089 35.764C40.9325 35.6153 40.9246 35.3648 41.0734 35.2082L43.7272 32.3896C43.8759 32.2331 44.1186 32.2252 44.283 32.374C44.4396 32.5227 44.4474 32.7733 44.2987 32.9299L41.6448 35.7484C41.5666 35.8267 41.4648 35.8737 41.363 35.8737H41.3552Z" fill="black"/>
<path id="Vector_9" d="M44.1657 35.1142C44.1657 35.1142 44.1265 35.1142 44.103 35.1142L42.2634 34.8324C42.052 34.8011 41.9033 34.5975 41.9346 34.3861C41.9659 34.1747 42.1694 34.026 42.3808 34.0573L44.2205 34.3391C44.4318 34.3705 44.5806 34.574 44.5493 34.7854C44.518 34.9811 44.3535 35.1221 44.1657 35.1221V35.1142Z" fill="black"/>
<path id="Vector_10" d="M34.2157 32.2017C34.2157 32.2017 34.1844 32.2017 34.1687 32.2017C33.9574 32.1704 33.8008 31.9747 33.8321 31.7633L34.1531 29.2423C34.1844 29.0309 34.3801 28.8821 34.5915 28.9056C34.8028 28.9369 34.9594 29.1327 34.9281 29.344L34.6071 31.8651C34.5836 32.0608 34.4114 32.2096 34.2157 32.2096V32.2017Z" fill="black"/>
<path id="Vector_11" d="M28.8062 31.732C28.8062 31.732 28.7671 31.732 28.7514 31.732C28.54 31.7007 28.3913 31.5049 28.4226 31.2857L28.7906 28.8117C28.8219 28.6003 29.0176 28.4515 29.2368 28.4828C29.4482 28.5142 29.5969 28.7099 29.5656 28.9291L29.1976 31.4032C29.1663 31.5989 29.0019 31.7398 28.814 31.7398L28.8062 31.732Z" fill="black"/>
<path id="Vector_12" d="M36.0085 28.0131C35.8676 28.0131 35.7266 27.9348 35.664 27.8017C35.2491 26.9953 34.1218 27.2223 34.067 27.2301C33.8556 27.2693 33.6521 27.1362 33.6051 26.9248C33.5582 26.7134 33.6912 26.5099 33.9026 26.4629C33.9731 26.4472 35.664 26.1027 36.3529 27.4415C36.4547 27.6373 36.3764 27.8722 36.1807 27.9661C36.1259 27.9974 36.0633 28.0131 36.0006 28.0131H36.0085Z" fill="black"/>
<path id="Vector_13" d="M30.7241 26.8857C30.5988 26.8857 30.4736 26.823 30.4031 26.7134C30.2465 26.4864 30.0743 26.3689 29.8629 26.3376C29.4246 26.2828 28.9 26.6429 28.7357 26.7839C28.5713 26.9248 28.3286 26.9091 28.1798 26.7447C28.0389 26.5803 28.0546 26.3376 28.2112 26.1967C28.2973 26.1184 29.0879 25.4529 29.949 25.5625C30.3874 25.6173 30.7632 25.86 31.045 26.275C31.1703 26.455 31.1233 26.6978 30.9433 26.8152C30.8728 26.8622 30.8024 26.8857 30.7241 26.8857Z" fill="black"/>
<path id="Vector_14" d="M40.9324 31.2074C40.9324 31.2074 40.4783 33.4936 39.1867 32.6637C37.895 31.8338 40.9324 27.6216 40.9324 27.6216C40.9324 27.6216 37.3783 28.8586 35.1628 25.9462C32.9474 23.0337 33.9808 21.2016 33.9808 21.2016L29.0332 23.8009C29.0332 23.8009 27.9998 17.9368 29.7377 16.8172C31.4835 15.6977 34.4191 16.8172 34.4191 16.8172C34.4191 16.8172 34.2391 14.2962 39.1867 14.8991C44.1342 15.5098 44.0011 20.6457 44.0011 20.6457C44.0011 20.6457 47.2577 20.497 48.3537 23.4173C49.4575 26.3298 47.4378 28.5846 47.4378 28.5846C47.4378 28.5846 49.7472 29.1013 48.6825 31.1135C47.6179 33.1178 46.2479 34.0729 46.2479 34.0729C46.2479 34.0729 45.606 29.8373 40.9246 31.2074H40.9324Z" fill="black"/>
<path id="Vector_15" d="M32.3135 48.5727C31.1157 48.5727 29.8318 48.4083 28.5088 48.009C28.3053 47.9464 28.1879 47.7272 28.2505 47.5236C28.3131 47.32 28.5323 47.1948 28.7359 47.2652C34.8499 49.1286 40.0714 45.4019 40.1262 45.3705C40.2984 45.2453 40.549 45.2844 40.6742 45.4567C40.7995 45.6289 40.7603 45.8794 40.5881 46.0047C40.4081 46.1378 36.9792 48.5884 32.3135 48.5884V48.5727Z" fill="#FFB255"/>
<path id="Vector_16" d="M63.2434 61.8981C62.7972 62.36 62.3432 62.8063 61.8735 63.2369C60.6131 64.4113 59.2666 65.4917 57.8418 66.486C55.7125 67.9658 53.4188 69.2263 50.9919 70.2363C47.1952 71.8099 43.0696 72.7573 38.7405 72.9608L44.1656 45.3784C44.1656 45.3784 44.1891 45.3784 44.2282 45.394C44.8153 45.5898 49.6846 47.2496 54.8435 51.446C56.5658 52.8397 58.3194 54.5151 59.9555 56.5116C61.1454 57.96 62.2727 59.8155 63.2434 61.8981Z" fill="#7772D3"/>
<path id="Vector_17" d="M31.2643 37.2281C31.0216 37.2281 30.8494 37.0402 30.8572 36.821C30.8572 36.6018 31.0373 36.4295 31.2564 36.4452C31.3191 36.4452 32.6264 36.4609 33.6911 35.2317C33.832 35.0672 34.0825 35.0516 34.2391 35.1925C34.4035 35.3334 34.4191 35.584 34.2782 35.7406C33.0492 37.1733 31.507 37.2281 31.2643 37.2281Z" fill="black"/>
</g>
</svg>
