<svg width="73" height="73" viewBox="0 0 73 73" fill="none" xmlns="http://www.w3.org/2000/svg">
<g id="Frame 32">
<path id="Vector" d="M73 36.5C73 39.7413 72.5772 42.8887 71.7786 45.8794C69.9153 52.9023 66.0163 59.0952 60.7394 63.7771C59.1187 65.2334 57.3571 66.5409 55.486 67.6761C54.844 68.0676 54.1941 68.4434 53.5286 68.7957C48.4474 71.4811 42.646 73 36.5 73C34.48 73 32.4992 72.8356 30.5654 72.5146C29.1796 72.2954 27.8252 71.99 26.4942 71.6142C21.0294 70.0562 16.0891 67.269 11.9944 63.5501C10.6556 62.3444 9.40294 61.0291 8.25987 59.6355C3.10039 53.3329 0 45.2766 0 36.5C0 16.3397 16.3397 0 36.5 0C56.6603 0 73 16.3397 73 36.5Z" fill="#B7C1FA"/>
<path id="Vector_2" d="M20.9197 26.549C20.9197 29.5555 23.3624 31.9982 26.3688 31.9982C29.3753 31.9982 31.818 29.5555 31.818 26.549C31.818 23.5426 29.3753 21.0999 26.3688 21.0999C23.3624 21.0999 20.9197 23.5426 20.9197 26.549Z" fill="#E56445"/>
<path id="Vector_3" d="M16.5745 33.7911C16.5745 36.2729 18.5866 38.2851 21.0685 38.2851C23.5503 38.2851 25.5625 36.2729 25.5625 33.7911C25.5625 31.3092 23.5503 29.2971 21.0685 29.2971C18.5866 29.2971 16.5745 31.3092 16.5745 33.7911Z" fill="#E56445"/>
<path id="Vector_4" d="M15.5801 41.8239C15.5801 44.3058 17.5922 46.3179 20.0741 46.3179C22.5559 46.3179 24.5681 44.3058 24.5681 41.8239C24.5681 39.342 22.5559 37.3299 20.0741 37.3299C17.5922 37.3299 15.5801 39.342 15.5801 41.8239Z" fill="#E56445"/>
<path id="Vector_5" d="M17.2637 49.0033C17.2637 51.0233 18.9 52.6674 20.9278 52.6674C22.9555 52.6674 24.5919 51.0311 24.5919 49.0033C24.5919 46.9755 22.9555 45.3392 20.9278 45.3392C18.9 45.3392 17.2637 46.9755 17.2637 49.0033Z" fill="#E56445"/>
<path id="Vector_6" d="M60.7395 63.7771C59.1188 65.2334 57.3572 66.5408 55.486 67.6761C54.844 68.0676 54.1942 68.4434 53.5287 68.7957L45.0105 46.4745C45.1593 46.5606 45.2845 46.631 45.4098 46.7172C45.5742 46.8189 45.7934 46.9599 46.0518 47.1243C46.2319 47.2496 46.4432 47.3827 46.6625 47.5392C49.2618 49.3086 54.2255 53.0354 56.9423 57.4198C57.9366 59.0169 59.3694 61.444 60.7395 63.7771Z" fill="#FCB35B"/>
<path id="Vector_7" d="M55.4861 67.6761C54.8441 68.0676 54.1942 68.4434 53.5287 68.7957C48.4476 71.4811 42.6461 73 36.5001 73C34.4802 73 32.4994 72.8356 30.5655 72.5146C29.1797 72.2954 27.8253 71.99 26.4943 71.6142L25.8445 47.2809C25.8445 47.2809 35.5606 41.1036 45.0105 46.4745C45.1593 46.5606 45.2845 46.6311 45.4098 46.7172C45.5742 46.819 45.7934 46.9599 46.0518 47.1243C46.2319 47.2496 46.4433 47.3827 46.6625 47.5393C47.1087 47.8603 47.5394 48.1969 47.97 48.5649C52.0568 52.0802 54.2804 59.7372 55.4861 67.6761Z" fill="#FCB35B"/>
<path id="Vector_8" d="M32.0531 37.5256L31.7869 45.7542C31.7869 45.7542 33.1961 48.1656 37.9955 48.7136C41.5734 49.1208 42.7635 47.32 42.7635 47.32L42.1293 40.0936L33.5015 37.9014L32.0531 37.5335V37.5256Z" fill="#FCA397"/>
<path id="Vector_9" d="M33.5015 37.9014C33.5171 38.1285 33.5954 38.3947 33.7129 38.7C35.4196 42.873 40.4225 43.9221 42.4895 44.1727L42.1293 40.0936L33.5015 37.9014Z" fill="black"/>
<path id="Vector_10" d="M44.5719 21.3974C44.5719 21.3974 48.557 31.8573 46.6623 37.5335C44.7755 43.2097 39.5768 42.051 36.4921 40.7904C33.4074 39.5299 32.0451 37.5335 32.0451 37.5335C32.0451 37.5335 29.07 38.3869 27.2379 35.5683C25.4059 32.7498 26.7682 29.6807 28.475 29.0466C30.1817 28.4124 32.1156 29.712 32.1156 29.712L30.6985 26.6586C30.6985 26.6586 37.9875 11.8457 44.5719 21.4052V21.3974Z" fill="#FCA397"/>
<path id="Vector_11" d="M30.5654 72.5146C29.1796 72.2954 27.8251 71.99 26.4942 71.6142C21.0293 70.0562 16.0891 67.269 11.9944 63.5501C12.1979 62.7202 12.4328 61.8903 12.699 61.0761C15.909 51.2347 25.8443 47.2809 25.8443 47.2809L27.0187 52.0959C27.9348 54.8361 28.5689 57.6547 28.9212 60.528L30.5654 72.5146Z" fill="#FCB35B"/>
<path id="Vector_12" d="M45.7856 26.0401C45.629 26.0401 45.4803 25.9461 45.4177 25.7896C45.3707 25.6643 45.308 25.633 45.2532 25.6095C44.9714 25.5155 44.4312 25.7504 44.2198 25.8757C44.0319 25.9853 43.797 25.9305 43.6796 25.7426C43.5699 25.5547 43.6248 25.3198 43.8127 25.2024C43.9144 25.1397 44.7991 24.623 45.5038 24.8579C45.8013 24.9597 46.0205 25.1789 46.1458 25.4921C46.2241 25.6956 46.1223 25.9227 45.9187 26.001C45.8718 26.0166 45.8248 26.0244 45.7778 26.0244L45.7856 26.0401Z" fill="black"/>
<path id="Vector_13" d="M40.5477 28.8821C40.4537 28.8821 40.352 28.843 40.2815 28.7725C40.1171 28.6238 39.616 28.248 39.1854 28.2793C38.9975 28.2949 38.8409 28.3967 38.7078 28.5924C38.5825 28.7647 38.3398 28.8117 38.1598 28.6786C37.9875 28.5533 37.9405 28.3106 38.0736 28.1305C38.3477 27.7547 38.7078 27.5355 39.1228 27.4963C39.9683 27.418 40.7434 28.1227 40.8295 28.201C40.9861 28.3497 40.9939 28.6003 40.8452 28.7569C40.7669 28.8351 40.6651 28.8821 40.5633 28.8821H40.5477Z" fill="black"/>
<path id="Vector_14" d="M44.2509 28.8351C44.1882 28.8351 44.1178 28.8195 44.0552 28.7803C43.8672 28.6707 43.8046 28.4359 43.9064 28.248C44.2039 27.7312 45.073 26.9013 46.2552 27.4807C46.4509 27.5746 46.5292 27.8095 46.4352 28.0052C46.3413 28.201 46.1064 28.2793 45.9107 28.1853C45.0964 27.786 44.6345 28.5455 44.5875 28.6316C44.5171 28.7569 44.384 28.8273 44.2431 28.8273L44.2509 28.8351Z" fill="black"/>
<path id="Vector_15" d="M43.5621 33.8067C43.5621 33.8067 43.5229 33.8067 43.5073 33.8067C43.2959 33.7754 43.1471 33.5719 43.1785 33.3605C43.4525 31.4971 42.4817 29.1327 42.4738 29.1092C42.3877 28.9135 42.4817 28.6786 42.6852 28.6003C42.8809 28.5142 43.1158 28.6081 43.1941 28.8117C43.2411 28.9135 44.2589 31.4032 43.9457 33.4779C43.9144 33.6736 43.75 33.8146 43.5621 33.8146V33.8067Z" fill="black"/>
<path id="Vector_16" d="M40.8844 36.6331C40.8844 36.6331 40.8139 36.6331 40.7748 36.6174C40.6886 36.5939 38.5826 35.9676 38.0189 34.2608C37.9484 34.0573 38.058 33.8302 38.2694 33.7676C38.473 33.6971 38.7 33.8067 38.7626 34.0181C39.2011 35.3256 40.9783 35.8658 40.994 35.8658C41.1975 35.9285 41.3228 36.1398 41.2602 36.3512C41.2132 36.5235 41.0566 36.6331 40.8844 36.6331Z" fill="black"/>
<path id="Vector_17" d="M31.5754 34.1356C31.4815 34.1356 31.3875 34.1042 31.3093 34.0338L28.1541 31.1448C27.9975 30.996 27.9818 30.7533 28.1306 30.5889C28.2793 30.4323 28.522 30.4167 28.6864 30.5654L31.8416 33.4544C31.9982 33.6032 32.0139 33.8459 31.8651 34.0103C31.7868 34.0964 31.6851 34.1356 31.5754 34.1356Z" fill="black"/>
<path id="Vector_18" d="M28.2637 33.9398C28.1149 33.9398 27.9661 33.8537 27.9035 33.6971C27.8174 33.5014 27.9113 33.2665 28.1149 33.1804L30.2366 32.28C30.4324 32.1939 30.6672 32.2879 30.7534 32.4914C30.8395 32.6871 30.7455 32.922 30.542 33.0081L28.4202 33.9085C28.3733 33.932 28.3185 33.9398 28.2715 33.9398H28.2637Z" fill="black"/>
<path id="Vector_19" d="M32.1155 29.7042C32.1155 29.7042 35.7327 29.5241 38.1441 26.6743C40.5555 23.8244 41.769 20.8571 41.769 20.8571C41.769 20.8571 43.2801 21.186 44.1883 22.4465C44.8616 23.3703 45.6367 24.7091 45.6367 24.7091C45.6367 24.7091 45.9264 20.5675 43.9377 18.4301C41.9491 16.2927 40.1249 16.9112 40.1249 16.9112C40.1249 16.9112 35.67 14.0848 30.8159 17.9838C25.9539 21.8828 27.7781 29.4615 27.7781 29.4615C27.7781 29.4615 30.1817 28.6394 32.1155 29.712V29.7042Z" fill="#E56445"/>
<path id="Vector_20" d="M38.5434 49.1599C38.2302 49.1599 37.9092 49.1443 37.5804 49.1208C33.5718 48.7919 30.7298 46.498 30.6123 46.3962C30.4479 46.2631 30.4244 46.0125 30.5575 45.8481C30.6906 45.6837 30.9412 45.6524 31.1056 45.7933C31.1291 45.8168 33.8928 48.0403 37.643 48.3457C41.3776 48.651 43.9612 46.9129 43.9847 46.8973C44.1648 46.772 44.4075 46.819 44.5328 46.999C44.658 47.1791 44.611 47.4218 44.431 47.5393C44.3292 47.6097 42.0274 49.1599 38.5434 49.1599Z" fill="#7772D3"/>
<path id="Vector_21" d="M38.1756 26.5725C38.1051 26.5725 38.0268 26.549 37.9642 26.5099C37.7841 26.3924 37.7293 26.1497 37.8467 25.9696C38.246 25.3433 38.7627 24.9675 39.3656 24.8501C40.3677 24.6543 41.2446 25.265 41.2759 25.2963C41.456 25.4216 41.4952 25.6643 41.3699 25.8444C41.2446 26.0166 41.0019 26.0636 40.8218 25.9383C40.8062 25.9305 40.172 25.4999 39.5065 25.6252C39.1229 25.7035 38.7784 25.9618 38.5044 26.4003C38.4261 26.5177 38.3008 26.5803 38.1756 26.5803V26.5725Z" fill="black"/>
</g>
</svg>
