<svg width="74" height="74" viewBox="0 0 74 74" fill="none" xmlns="http://www.w3.org/2000/svg">
<g id="Frame 46">
<path id="Vector" d="M73.72 36.9039C73.72 43.1745 72.1386 49.0771 69.3439 54.2282C68.6941 55.4494 67.9583 56.6315 67.1676 57.7666C64.8895 61.0467 62.0713 63.9354 58.8538 66.2918C58.8381 66.3153 58.8147 66.3231 58.799 66.3388C58.5876 66.4953 58.3763 66.6519 58.1571 66.7928C54.1959 69.5797 49.6554 71.5916 44.7548 72.6171C42.328 73.1338 39.8073 73.4 37.2239 73.4C31.2978 73.4 25.7083 71.9909 20.7607 69.478C17.9033 68.0375 15.2652 66.2292 12.901 64.1155C11.6328 62.9725 10.435 61.7513 9.33123 60.444C8.83021 59.8568 8.35268 59.2541 7.89863 58.6356C6.68523 57.0073 5.6049 55.2772 4.67332 53.4532C2.14474 48.4822 0.719971 42.8613 0.719971 36.9039C0.719971 16.7457 17.0657 0.399994 37.2239 0.399994C57.3821 0.399994 73.72 16.7457 73.72 36.9039Z" fill="#B7C1FA"/>
<path id="Vector_2" d="M48.2776 28.2457C47.7061 25.6936 45.7803 23.9557 43.972 24.355L43.0325 24.4959C42.9151 24.5037 42.8055 24.5194 42.6881 24.5507C40.8797 24.9578 39.8855 27.3533 40.457 29.9053C41.0285 32.4574 42.9543 34.1953 44.7626 33.7961L45.702 33.6551C45.8195 33.6473 45.9291 33.6317 46.0465 33.6003C47.8548 33.1933 48.8491 30.7978 48.2776 28.2457Z" fill="#46467F"/>
<path id="Vector_3" d="M69.3439 54.2282C68.6942 55.4494 67.9583 56.6315 67.1676 57.7666C64.8896 61.0467 62.0713 63.9354 58.8539 66.2918C58.8382 66.3153 58.8147 66.3231 58.7991 66.3388C58.5877 66.4953 58.3763 66.6519 58.1571 66.7928C54.1959 69.5797 49.6555 71.5916 44.7549 72.6171C42.3281 73.1338 39.8073 73.4 37.2239 73.4C31.2978 73.4 25.7083 71.9909 20.7608 69.478C17.9034 68.0375 15.2652 66.2292 12.901 64.1155C11.6328 62.9725 10.4351 61.7513 9.33128 60.444C8.83026 59.8568 8.35273 59.254 7.89868 58.6356C13.6995 51.6526 18.8037 50.2435 18.8037 50.2435C18.6393 50.0635 16.8466 47.9498 18.8037 44.1452C21.3792 39.1193 29.3799 36.0115 29.3799 36.0115L43.5023 35.1738C43.5023 35.1738 49.4441 35.6044 53.8437 40.6615C57.4839 44.8263 56.8341 47.4723 56.4897 48.2786C56.427 48.4508 56.3644 48.5369 56.3644 48.5369C56.3644 48.5369 62.4628 50.541 69.3439 54.2282Z" fill="#7772D3"/>
<path id="Vector_4" d="M56.4895 48.2786C53.5617 50.1339 48.8647 52.4511 42.2418 53.9072C29.8573 56.6393 18.7957 50.2435 18.7957 50.2435C18.6313 50.0635 16.8386 47.9498 18.7957 44.1452C21.3713 39.1193 29.3719 36.0193 29.3719 36.0193L43.4944 35.1816C43.4944 35.1816 49.4283 35.6122 53.8357 40.6694C57.4759 44.8341 56.8262 47.4801 56.4817 48.2864L56.4895 48.2786Z" fill="#9393E5"/>
<path id="Vector_5" d="M31.4311 45.2882C31.4311 45.2882 25.8337 42.3682 26.1704 40.6616C26.507 38.955 31.9321 37.8042 35.4157 38.4618C38.8915 39.1194 47.1192 39.2212 47.1192 42.2116C47.1192 44.8576 43.3459 47.4019 43.3459 47.4019L35.4157 45.116L31.4311 45.2882Z" fill="#7772D3"/>
<path id="Vector_6" d="M31.2351 36.536L31.4308 45.296C31.4308 45.296 33.067 47.7776 38.1946 48.0829C42.0148 48.3099 43.3378 47.4175 43.3378 47.4175L42.7037 42.9944L42.0853 38.681L32.793 36.8491L31.2351 36.5438V36.536Z" fill="#FCA397"/>
<path id="Vector_7" d="M32.793 36.8413C32.8243 37.0762 32.9182 37.358 33.067 37.6789C35.1258 42.008 40.504 42.8379 42.7116 42.9788L42.0931 38.6653L32.8008 36.8335L32.793 36.8413Z" fill="black"/>
<path id="Vector_8" d="M43.6041 18.6715C43.6041 18.6715 48.4421 29.553 46.7668 35.6905C45.0915 41.828 39.502 40.9042 36.1514 39.7378C32.8009 38.5792 31.2352 36.536 31.2352 36.536C31.2352 36.536 28.1195 37.6163 26.0136 34.7276C23.9078 31.8389 25.1682 28.4962 26.9452 27.7212C28.7223 26.9462 30.8516 28.2144 30.8516 28.2144L29.1685 25.0517C29.1685 25.0517 36.0497 8.89385 43.5963 18.6637L43.6041 18.6715Z" fill="#FCA397"/>
<path id="Vector_9" d="M43.1891 32.5748C43.1891 32.5748 43.1108 32.5748 43.0716 32.5592C42.8681 32.4966 42.7507 32.2773 42.8133 32.0738C43.4239 30.0932 41.9365 27.9326 41.9209 27.9091C41.7956 27.7291 41.8426 27.4864 42.0148 27.3611C42.1949 27.2359 42.4375 27.2828 42.5628 27.455C42.6332 27.5568 44.2929 29.9445 43.5648 32.3008C43.51 32.4652 43.3613 32.5748 43.1891 32.5748Z" fill="black"/>
<path id="Vector_10" d="M30.3898 33.3654C30.288 33.3654 30.1862 33.3263 30.1158 33.248L27.1488 30.1088C27.0079 29.9601 27.0157 29.7174 27.1645 29.5765C27.3132 29.4356 27.5559 29.4434 27.6968 29.5921L30.6638 32.7313C30.8047 32.8801 30.7969 33.1228 30.6481 33.2637C30.5777 33.3341 30.4837 33.3654 30.3898 33.3654Z" fill="black"/>
<path id="Vector_11" d="M27.2505 32.52C27.0704 32.52 26.906 32.3869 26.8747 32.199C26.8434 31.9955 26.9843 31.7998 27.1879 31.7685L29.2389 31.4553C29.4503 31.424 29.6381 31.5649 29.6695 31.7685C29.7008 31.972 29.5599 32.1677 29.3563 32.199L27.3053 32.5122C27.3053 32.5122 27.2661 32.5122 27.2505 32.5122V32.52Z" fill="black"/>
<path id="Vector_12" d="M30.8516 28.2222C30.8516 28.2222 31.9789 28.9581 32.7931 27.682C33.615 26.3982 31.8223 22.6171 31.8223 22.6171C31.8223 22.6171 35.1964 23.3842 37.2866 22.2648C39.3768 21.1453 40.4023 18.0766 40.4023 18.0766C40.4023 18.0766 41.9366 21.2784 46.5476 19.8693C51.1585 18.4602 52.0353 12.1818 47.1112 10.9058C42.1872 9.62189 39.502 11.806 39.502 11.806C39.502 11.806 38.8757 7.24987 32.7931 9.50446C27.2505 11.5555 26.3111 18.4993 26.3111 18.4993C26.3111 18.4993 22.984 18.6559 22.3421 22.2726C21.7002 25.8972 25.9354 28.5119 25.9354 28.5119C25.9354 28.5119 28.3387 27.1027 30.8438 28.2222H30.8516Z" fill="black"/>
<path id="Vector_13" d="M38.2494 28.5119C38.0537 28.5119 37.8893 28.371 37.8579 28.1674L37.5996 26.132C37.5761 25.9207 37.7249 25.7249 37.9362 25.6936C38.1554 25.6623 38.3433 25.8189 38.3746 26.0303L38.633 28.0656C38.6564 28.277 38.5077 28.4727 38.2963 28.504C38.2807 28.504 38.265 28.504 38.2494 28.504V28.5119Z" fill="black"/>
<path id="Vector_14" d="M44.2851 28.0265C44.0972 28.0265 43.925 27.8856 43.9015 27.6899L43.604 25.6623C43.5727 25.4509 43.7214 25.2474 43.9328 25.2161C44.1442 25.1926 44.3477 25.3335 44.379 25.5449L44.6765 27.5724C44.7078 27.7838 44.5591 27.9873 44.3477 28.0186C44.3321 28.0186 44.3086 28.0186 44.2929 28.0186L44.2851 28.0265Z" fill="black"/>
<path id="Vector_15" d="M36.3549 24.6133C36.2923 24.6133 36.2297 24.5977 36.1749 24.5663C35.9792 24.4646 35.9087 24.2297 36.0026 24.0418C36.7542 22.5701 38.6095 22.9537 38.6878 22.9772C38.8992 23.0241 39.0322 23.2277 38.9853 23.439C38.9383 23.6504 38.7348 23.7835 38.5234 23.7444C38.4686 23.7287 37.1769 23.4704 36.6994 24.4019C36.6289 24.535 36.4958 24.6133 36.3471 24.6133H36.3549Z" fill="black"/>
<path id="Vector_16" d="M42.2419 23.3529C42.1636 23.3529 42.0853 23.3295 42.0227 23.2825C41.8426 23.1572 41.7957 22.9146 41.9209 22.7423C42.2341 22.2883 42.6333 22.03 43.1108 21.9673C44.0737 21.8421 44.974 22.6327 45.0131 22.6719C45.1775 22.8128 45.1932 23.0633 45.0445 23.2199C44.9035 23.3842 44.653 23.3999 44.4886 23.2512C44.3008 23.0868 43.7058 22.6797 43.1969 22.7423C42.9464 22.7736 42.7429 22.9146 42.5628 23.1807C42.4846 23.2903 42.3671 23.3529 42.2419 23.3529Z" fill="black"/>
<path id="Vector_17" d="M37.4823 55.2694C25.8727 54.6197 21.3636 51.958 21.1757 51.8484C20.9878 51.7388 20.933 51.4961 21.0426 51.3082C21.1522 51.1203 21.3949 51.0656 21.5828 51.1752C21.6297 51.1986 26.1467 53.8525 37.4979 54.4866C37.7171 54.5022 37.8815 54.6823 37.8659 54.9015C37.858 55.1128 37.678 55.2694 37.4744 55.2694H37.4823Z" fill="#46467F"/>
<path id="Vector_18" d="M37.7952 68.4759C37.5682 68.4759 37.396 68.288 37.4038 68.0688L37.7248 58.6669C37.7248 58.4477 37.9127 58.2911 38.1319 58.2911C38.3511 58.2911 38.5155 58.479 38.5076 58.6982L38.1867 68.1001C38.1867 68.3115 38.0066 68.4759 37.7952 68.4759Z" fill="#46467F"/>
<path id="Vector_19" d="M53.1235 65.6342C52.9904 65.6342 52.8573 65.5638 52.7869 65.4385L48.0976 57.5161C47.988 57.3282 48.0507 57.0856 48.2385 56.976C48.4264 56.8664 48.6613 56.929 48.7709 57.1169L53.4601 65.0392C53.5697 65.2271 53.5071 65.462 53.3192 65.5794C53.2566 65.6186 53.1861 65.6342 53.1235 65.6342Z" fill="#46467F"/>
<path id="Vector_20" d="M53.1235 50.635C52.9826 50.635 52.8495 50.5567 52.779 50.4236C52.6772 50.2279 52.7555 49.993 52.9434 49.8913L56.1844 48.1847C56.3723 48.0829 56.6149 48.1533 56.7167 48.3491C56.8185 48.5448 56.7402 48.7796 56.5523 48.8814L53.3113 50.588C53.2565 50.6193 53.1939 50.635 53.1313 50.635H53.1235Z" fill="#46467F"/>
<path id="Vector_21" d="M33.255 31.4397C33.5838 34.0309 32.3704 36.3246 30.5385 36.5595C28.7067 36.7943 26.9453 34.8842 26.6165 32.2852C26.2877 29.6861 27.5011 27.4002 29.333 27.1654C31.1648 26.9305 32.9262 28.8406 33.255 31.4397Z" fill="#46467F"/>
<path id="Vector_22" d="M29.3329 27.1653L28.0647 27.4237L29.2703 36.8178L30.5385 36.5594L31.9241 35.0721L32.3234 29.8583L29.3329 27.1653Z" fill="#46467F"/>
<path id="Vector_23" d="M31.9867 31.6901C32.3155 34.2813 31.1021 36.5751 29.2702 36.8099C27.4384 37.0448 25.677 35.1347 25.3482 32.5356C25.0194 29.9366 26.2328 27.6507 28.0646 27.4158C29.8965 27.181 31.6579 29.0911 31.9867 31.6823V31.6901Z" fill="white"/>
<path id="Vector_24" d="M27.1409 15.5323C27.1409 15.5323 25.7396 17.2076 25.3482 18.6872C24.9568 20.1667 27.2505 29.4982 27.2505 29.4982L30.147 28.8406L27.1409 15.5323Z" fill="white"/>
<path id="Vector_25" d="M40.5978 35.6514C39.2513 35.6514 38.2727 34.6572 37.9126 34.0465C37.803 33.8587 37.8657 33.6238 38.0457 33.5142C38.2336 33.4046 38.4684 33.4672 38.5859 33.6473C38.625 33.7099 39.5488 35.213 41.1301 34.7981C41.3336 34.7433 41.5528 34.8685 41.6076 35.0799C41.6624 35.2913 41.5372 35.5026 41.3258 35.5574C41.0753 35.6201 40.8248 35.6514 40.5978 35.6514Z" fill="black"/>
</g>
</svg>
