<svg width="74" height="74" viewBox="0 0 74 74" fill="none" xmlns="http://www.w3.org/2000/svg">
<g id="Frame 42">
<path id="Vector" d="M73.4399 36.9039C73.4399 41.6088 72.5475 46.1101 70.927 50.2435C69.6666 53.4688 67.9522 56.4593 65.8542 59.1601C65.4863 59.6454 65.1027 60.1151 64.6956 60.577C62.441 63.2387 59.8028 65.5716 56.8672 67.4817C56.0844 67.9905 55.2858 68.4759 54.4639 68.9221C49.258 71.7795 43.2927 73.4 36.936 73.4C29.4677 73.4 22.5317 71.1532 16.7465 67.3095C16.5978 67.2077 16.4491 67.1059 16.3003 66.9963C14.9695 66.0961 13.7013 65.1019 12.5113 64.0137C12.3783 63.8963 12.2452 63.7789 12.1199 63.6536C11.2979 62.9021 10.5151 62.1036 9.7714 61.2738C9.74009 61.2346 9.70097 61.1955 9.66965 61.1563C3.93142 54.7136 0.439941 46.2197 0.439941 36.9039C0.439941 16.7457 16.7857 0.399994 36.936 0.399994C57.0864 0.399994 73.4399 16.7457 73.4399 36.9039Z" fill="#B7C1FA"/>
<path id="Vector_2" d="M16.3001 66.9963C14.9693 66.0961 13.701 65.1019 12.5111 64.0137C12.378 63.8963 12.245 63.7789 12.1197 63.6536C11.2977 62.9021 10.5149 62.1036 9.77118 61.2738C9.73987 61.2346 9.70075 61.1955 9.66943 61.1564C11.9632 54.8858 15.666 45.4525 18.4842 43.6598C18.5234 43.6364 18.5625 43.605 18.6017 43.5737C18.6486 43.5502 18.6878 43.5268 18.7347 43.4954C19.9325 43.3389 18.4529 54.1812 16.3001 66.9963Z" fill="#F7734F"/>
<path id="Vector_3" d="M64.6958 60.577C62.4412 63.2387 59.803 65.5716 56.8674 67.4817C56.0845 67.9906 55.286 68.4759 54.4641 68.9221C49.2582 71.7795 43.2929 73.4 36.9362 73.4C29.4679 73.4 22.5319 71.1532 16.7467 67.3095C16.598 67.2077 16.4493 67.1059 16.3005 66.9963C14.9697 66.0961 13.7015 65.1019 12.5115 64.0137C12.3785 63.8963 12.2454 63.7789 12.1201 63.6536C12.9812 57.7667 14.1085 52.2398 15.5411 48.4195C16.4101 46.1023 17.3808 44.427 18.4846 43.6598C18.5238 43.6364 18.5629 43.605 18.6021 43.5737C18.649 43.5502 18.6882 43.5268 18.7351 43.4955C24.5908 39.777 40.506 40.9904 50.3072 42.5795C52.8357 42.9866 55.0982 44.4583 56.6169 46.666C59.075 50.2435 62.7935 55.9974 64.6958 60.577Z" fill="#F7734F"/>
<path id="Vector_4" d="M45.978 10.5143C45.978 10.5143 45.657 8.45543 47.622 9.29307C49.5869 10.1385 48.7492 12.1974 47.622 11.9156C46.4947 11.6338 45.978 10.5065 45.978 10.5065V10.5143Z" fill="#7772D3"/>
<path id="Vector_5" d="M49.7824 23.533C49.7824 23.533 49.4772 29.0912 46.9721 29.3495C44.467 29.6078 40.7876 26.4373 40.7876 26.4373L42.5099 20.1746L49.7824 23.5252V23.533Z" fill="black"/>
<path id="Vector_6" d="M30.6735 21.9516C30.6735 21.9516 22.5006 19.3291 21.2872 15.8611C20.0738 12.3931 35.5114 17.646 35.5114 17.646L30.6813 21.9594L30.6735 21.9516Z" fill="#5C5CC6"/>
<path id="Vector_7" d="M42.5097 33.8586L41.8756 42.6969C41.8756 42.6969 40.2786 45.1942 35.1745 45.5621C31.3699 45.8361 30.0391 44.9671 30.0391 44.9671L30.6105 40.5519L31.1742 36.2463L40.4117 34.3048L42.5176 33.8586H42.5097Z" fill="#F49282"/>
<path id="Vector_8" d="M40.4042 34.3048C40.3807 34.5397 40.2868 34.8215 40.1458 35.1425C38.1574 39.4794 32.8106 40.3719 30.6108 40.5519L31.1745 36.2463L40.412 34.3048H40.4042Z" fill="black"/>
<path id="Vector_9" d="M29.3974 16.3465C29.3974 16.3465 24.7238 27.2436 26.4696 33.3341C28.2153 39.4246 33.7735 38.4304 37.0928 37.2249C40.412 36.0193 41.9464 33.9682 41.9464 33.9682C41.9464 33.9682 45.0621 35.0016 47.121 32.0973C49.1798 29.1929 47.8803 25.8815 46.0954 25.13C44.3106 24.3784 42.2125 25.678 42.2125 25.678L43.8487 22.5075C43.8487 22.5075 36.7796 6.50616 29.3896 16.3308L29.3974 16.3465Z" fill="#F49282"/>
<path id="Vector_10" d="M42.5096 30.4455C42.3843 30.4455 42.2669 30.3907 42.1887 30.2811C42.0634 30.101 42.1025 29.8583 42.2826 29.7331L46.2359 26.9383C46.4082 26.8131 46.6587 26.8522 46.7839 27.0323C46.9092 27.2124 46.87 27.455 46.69 27.5803L42.7366 30.375C42.6661 30.422 42.5879 30.4455 42.5096 30.4455Z" fill="black"/>
<path id="Vector_11" d="M46.0876 30.4298C46.0876 30.4298 46.0172 30.4298 45.9859 30.4141L43.4025 29.7252C43.1911 29.6704 43.0658 29.4512 43.1285 29.2477C43.1833 29.0363 43.3947 28.9189 43.606 28.9737L46.1894 29.6626C46.4008 29.7174 46.526 29.9366 46.4634 30.1402C46.4164 30.3124 46.2599 30.4298 46.0876 30.4298Z" fill="black"/>
<path id="Vector_12" d="M36.6699 21.5837C36.5525 21.5837 36.4351 21.5289 36.3568 21.4271C36.0202 20.9809 35.6366 20.7226 35.2295 20.6678C34.6189 20.5895 34.11 20.9731 34.1022 20.9731C33.93 21.1061 33.6873 21.0748 33.5542 20.9026C33.4211 20.7304 33.4524 20.4877 33.6168 20.3546C33.6481 20.3312 34.384 19.7597 35.3156 19.8849C35.9419 19.9632 36.5055 20.3233 36.9752 20.9496C37.1083 21.1218 37.0692 21.3645 36.8969 21.4976C36.8265 21.5524 36.7404 21.5759 36.6621 21.5759L36.6699 21.5837Z" fill="black"/>
<path id="Vector_13" d="M28.2073 20.8087C28.0898 20.8087 27.9803 20.7617 27.902 20.6678C27.7689 20.5034 27.7924 20.2529 27.9568 20.1198C28.4813 19.697 28.9745 19.5248 29.405 19.6031C29.8747 19.697 30.0861 20.0571 30.1096 20.0963C30.2114 20.2842 30.1409 20.5268 29.953 20.6286C29.7652 20.7304 29.5303 20.6678 29.4285 20.4799C29.4207 20.4642 29.3659 20.3859 29.2485 20.3703C29.1389 20.3468 28.8883 20.3703 28.4499 20.7304C28.3795 20.793 28.2934 20.8165 28.1995 20.8165L28.2073 20.8087Z" fill="black"/>
<path id="Vector_14" d="M29.7418 29.8505C29.5695 29.8505 29.413 29.7331 29.366 29.5609C28.7476 27.2437 29.6165 24.8795 29.6557 24.7777C29.7339 24.5742 29.961 24.4724 30.1567 24.5507C30.3602 24.629 30.462 24.8482 30.3837 25.0517C30.3837 25.0752 29.5617 27.2906 30.1175 29.3573C30.1723 29.5687 30.0471 29.7801 29.8435 29.8349C29.8122 29.8427 29.7731 29.8505 29.7418 29.8505Z" fill="black"/>
<path id="Vector_15" d="M28.2154 24.9891C28.2154 24.9891 28.1449 24.9891 28.1058 24.9734C27.8944 24.9108 27.777 24.6994 27.8318 24.488L28.3954 22.4918C28.4581 22.2804 28.6694 22.163 28.8808 22.2178C29.0922 22.2804 29.2096 22.4918 29.1548 22.7032L28.5911 24.6994C28.5442 24.8716 28.3876 24.9812 28.2154 24.9812V24.9891Z" fill="black"/>
<path id="Vector_16" d="M34.6114 25.1691C34.6114 25.1691 34.5409 25.1691 34.5018 25.1535C34.2904 25.0908 34.173 24.8795 34.2278 24.6681L34.7914 22.6719C34.8541 22.4605 35.0654 22.3431 35.2768 22.3979C35.4882 22.4605 35.6056 22.6719 35.5508 22.8832L34.9871 24.8795C34.9402 25.0517 34.7836 25.1613 34.6114 25.1613V25.1691Z" fill="black"/>
<path id="Vector_17" d="M28.7788 17.9278C28.7788 17.9278 29.4207 17.0589 31.597 17.0589C33.7733 17.0589 35.0337 18.6089 35.0337 18.6089C35.0337 18.6089 35.2138 22.5544 38.1572 24.5272C41.1007 26.4999 42.228 25.6858 42.228 25.6858L44.3808 24.9421L45.9857 21.8186L39.8325 15.0705L32.4425 11.9156L28.7788 15.9864V17.9278Z" fill="black"/>
<path id="Vector_18" d="M31.9415 32.3869C31.8006 32.3869 31.7145 32.379 31.6988 32.379C31.4875 32.3555 31.3309 32.1677 31.3544 31.9485C31.3779 31.7371 31.5736 31.5727 31.7849 31.5962C31.8554 31.5962 33.5463 31.7449 34.2822 30.2184C34.3761 30.0227 34.611 29.9444 34.8067 30.0383C35.0025 30.1323 35.0807 30.3671 34.9868 30.5628C34.1883 32.2225 32.5756 32.3869 31.9494 32.3869H31.9415Z" fill="black"/>
<path id="Vector_19" d="M28.4971 15.5245C28.4971 15.5245 31.5814 6.7645 42.5099 8.6355C53.4384 10.5143 49.7825 24.4019 49.7825 24.4019L44.8036 22.7814L28.4971 15.5167V15.5245Z" fill="#7772D3"/>
<path id="Vector_20" d="M25.3184 14.906C25.3184 14.906 29.1465 15.047 39.0025 19.6109C42.4 21.1844 45.367 23.0241 45.367 23.0241C45.367 23.0241 34.0158 18.2566 29.6084 18.3114C27.9174 18.3349 26.8214 18.969 26.8214 18.969L25.3262 14.9139L25.3184 14.906Z" fill="#5C5CC6"/>
<path id="Vector_21" d="M33.3743 45.8596C31.4329 45.8596 30.0707 45.5465 29.9455 45.5152C29.7341 45.4682 29.6089 45.2568 29.6558 45.0455C29.7028 44.8341 29.9142 44.7089 30.1255 44.7558C30.1881 44.7715 36.6466 46.2511 41.6333 42.556C41.8055 42.4308 42.056 42.4621 42.1813 42.6343C42.3144 42.8066 42.2752 43.0571 42.103 43.1823C39.1595 45.3664 35.809 45.8596 33.3743 45.8596Z" fill="#46467F"/>
</g>
</svg>
