<svg width="74" height="74" viewBox="0 0 74 74" fill="none" xmlns="http://www.w3.org/2000/svg">
<g id="Frame 36">
<path id="Vector" d="M73.7148 37.4317C73.7148 17.3088 57.3732 0.995863 37.2148 0.995864C17.0564 0.995864 0.714841 17.3088 0.714842 37.4317C0.714843 57.5547 17.0564 73.8676 37.2148 73.8676C57.3732 73.8676 73.7148 57.5547 73.7148 37.4317Z" fill="#B7C1FA"/>
<path id="Vector_2" d="M10.4741 62.4368C10.5524 62.5305 10.6307 62.6165 10.7168 62.7025C10.8264 62.8197 10.9439 62.9369 11.0535 63.0464C17.6771 69.799 26.9156 73.9959 37.1406 73.9959C38.7221 73.9959 40.2957 73.8943 41.8225 73.7067C41.8381 73.7067 41.846 73.7067 41.8616 73.7067C45.6197 73.2143 49.2055 72.1592 52.5172 70.6196C52.2041 57.4192 52.3372 45.8679 52.3372 45.6491C52.2119 45.3755 46.0894 43.8046 37.9392 43.5389C25.1148 43.1325 14.2791 50.354 10.4741 62.4446V62.4368Z" fill="#507849"/>
<path id="Vector_3" d="M41.8223 73.7067C41.8223 73.7067 41.8458 73.7067 41.8615 73.7067C45.6195 73.2143 49.2053 72.1593 52.5171 70.6196C52.7911 70.4946 53.0651 70.3617 53.3391 70.2288C58.7335 67.5637 63.3684 63.5935 66.8368 58.74C59.8061 49.1192 54.0594 46.3134 52.337 45.6491C51.9847 45.5084 51.8046 45.4615 51.8046 45.4615L41.8223 73.7145V73.7067Z" fill="#507849"/>
<path id="Vector_4" d="M36.9994 22.1166C36.9994 22.1166 28.5751 22.5152 28.0975 14.4496C27.5886 5.86034 35.551 5.03971 38.9332 8.50979C42.3155 11.9799 41.6891 15.5125 41.6891 15.5125C41.6891 15.5125 44.0457 13.3945 46.6137 15.997C48.5006 17.9118 47.5297 21.0302 47.5297 21.0302C47.5297 21.0302 51.875 20.8661 51.4678 24.6488C51.0607 28.4315 48.3518 30.3619 48.3518 30.3619L37.0072 22.1088L36.9994 22.1166Z" fill="#E56445"/>
<path id="Vector_5" d="M44.7037 36.966L43.8268 45.907C43.8268 45.907 41.9634 48.322 36.6787 48.236C32.7484 48.1735 31.4644 47.1574 31.4644 47.1574L32.4508 42.687L33.4217 38.3259L43.083 37.1692L44.7037 36.9738V36.966Z" fill="#FCA397"/>
<path id="Vector_6" d="M43.0828 37.1614C43.0359 37.4037 42.9184 37.6851 42.7383 37.9977C40.2956 42.2649 34.7212 42.6948 32.4507 42.6792L33.4215 38.3181L43.0828 37.1614Z" fill="black"/>
<path id="Vector_7" d="M33.4217 17.7477C33.4217 17.7477 27.6202 28.494 28.865 34.9028C30.1099 41.3115 35.9035 40.7956 39.4267 39.8656C42.9498 38.9355 44.7036 36.9739 44.7036 36.9739C44.7036 36.9739 47.8118 38.3181 50.1919 35.528C52.572 32.7379 51.5386 29.2209 49.777 28.2908C48.0154 27.3608 45.7371 28.494 45.7371 28.494L47.7022 25.3913C47.7022 25.3913 41.9007 8.33786 33.4138 17.7399L33.4217 17.7477Z" fill="#FCA397"/>
<path id="Vector_8" d="M45.6357 33.3865C45.5026 33.3865 45.3695 33.3162 45.299 33.1911C45.1894 33.0036 45.2521 32.7691 45.44 32.6597L48.9945 30.6042C49.1824 30.4948 49.4172 30.5573 49.5269 30.7449C49.6365 30.9325 49.5738 31.1669 49.3859 31.2763L45.8315 33.3318C45.7688 33.3709 45.7062 33.3865 45.6357 33.3865Z" fill="black"/>
<path id="Vector_9" d="M48.532 33.6992C48.4693 33.6992 48.4067 33.6835 48.3519 33.6523L46.5433 32.7066C46.3476 32.605 46.2771 32.3705 46.3789 32.1829C46.4807 31.9876 46.7156 31.9172 46.9035 32.0188L48.7121 32.9645C48.9078 33.0661 48.9782 33.3006 48.8764 33.4881C48.806 33.621 48.6729 33.6992 48.532 33.6992Z" fill="black"/>
<path id="Vector_10" d="M31.8483 21.9603C31.723 21.9603 31.5978 21.8978 31.5273 21.7883C31.4099 21.6086 31.4569 21.3663 31.6369 21.2491C33.101 20.2643 34.4319 21.2178 34.4946 21.2569C34.6668 21.3819 34.706 21.632 34.5807 21.804C34.4554 21.9759 34.2128 22.015 34.0327 21.8899C33.9857 21.8587 33.0697 21.2334 32.0754 21.8899C32.0049 21.9368 31.9344 21.9603 31.8561 21.9603H31.8483Z" fill="black"/>
<path id="Vector_11" d="M33.0536 32.136C32.8735 32.136 32.7091 32.0032 32.67 31.8234C31.9497 28.1032 34.0792 25.7195 34.1732 25.6179C34.3219 25.4616 34.5646 25.446 34.729 25.5945C34.8856 25.743 34.9013 25.9852 34.7525 26.1494C34.7369 26.1728 32.7952 28.3612 33.445 31.6749C33.4842 31.886 33.3511 32.0892 33.1319 32.136C33.1084 32.136 33.0849 32.136 33.0536 32.136Z" fill="black"/>
<path id="Vector_12" d="M31.8478 27.2358C31.6129 27.2279 31.4485 27.0404 31.4563 26.8293L31.5503 24.6957C31.5581 24.4769 31.7069 24.2971 31.9574 24.3206C32.1766 24.3284 32.341 24.516 32.3332 24.727L32.2392 26.8606C32.2314 27.0716 32.0592 27.2358 31.8478 27.2358Z" fill="black"/>
<path id="Vector_13" d="M37.7199 27.7985C37.485 27.7906 37.3206 27.6031 37.3284 27.3921L37.4223 25.2584C37.4302 25.0396 37.5711 24.8677 37.8295 24.8833C38.0487 24.8911 38.2131 25.0787 38.2053 25.2897L38.1113 27.4233C38.1035 27.6343 37.9312 27.7985 37.7199 27.7985Z" fill="black"/>
<path id="Vector_14" d="M32.2318 20.1783C32.2318 20.1783 33.3827 18.4746 35.614 18.6778C37.8532 18.881 38.9963 20.5769 38.9963 20.5769C38.9963 20.5769 37.6497 24.2346 40.4917 26.5245C43.3337 28.8145 45.7372 28.4862 45.7372 28.4862L48.0156 27.9157L49.9494 24.8598L44.2497 17.3804L36.4283 12.23L31.8481 15.6297L32.2318 20.1705V20.1783Z" fill="#E56445"/>
<path id="Vector_15" d="M34.9094 34.426C34.5728 34.426 34.3457 34.3869 34.3144 34.3791C34.103 34.34 33.9621 34.1368 34.0091 33.9258C34.0482 33.7148 34.2518 33.5741 34.4632 33.6132C34.5336 33.6288 36.2639 33.9336 37.1643 32.4252C37.2739 32.2377 37.5166 32.1751 37.7045 32.2924C37.8924 32.4018 37.955 32.6441 37.8376 32.8316C37.0155 34.215 35.6767 34.4338 34.9094 34.4338V34.426Z" fill="black"/>
<path id="Vector_16" d="M29.4916 30.4557C27.3855 30.4557 25.6787 28.6972 25.6787 26.5323C25.6787 24.3674 27.3933 22.609 29.4916 22.609C31.5898 22.609 33.3044 24.3674 33.3044 26.5323C33.3044 28.6972 31.5898 30.4557 29.4916 30.4557ZM29.4916 23.3905C27.8161 23.3905 26.4616 24.7973 26.4616 26.5323C26.4616 28.2674 27.8239 29.6742 29.4916 29.6742C31.1592 29.6742 32.5215 28.2674 32.5215 26.5323C32.5215 24.7973 31.1592 23.3905 29.4916 23.3905Z" fill="white"/>
<path id="Vector_17" d="M38.5499 31.331C36.3812 31.331 34.6196 29.5726 34.6196 27.4077C34.6196 25.2428 36.3812 23.4843 38.5499 23.4843C40.7186 23.4843 42.4802 25.2428 42.4802 27.4077C42.4802 29.5726 40.7186 31.331 38.5499 31.331ZM38.5499 24.2658C36.8118 24.2658 35.4026 25.6726 35.4026 27.4077C35.4026 29.1427 36.8118 30.5495 38.5499 30.5495C40.288 30.5495 41.6973 29.1427 41.6973 27.4077C41.6973 25.6726 40.288 24.2658 38.5499 24.2658Z" fill="white"/>
<path id="Vector_18" d="M35.3946 27.392L32.5917 27.1654C32.3725 27.1498 32.2159 26.9622 32.2315 26.7434C32.2472 26.5323 32.443 26.3682 32.6544 26.3838L35.4259 26.6105C35.6451 26.6261 35.8017 26.8137 35.7861 27.0325C35.7704 27.2357 35.5982 27.392 35.3946 27.392Z" fill="white"/>
<path id="Vector_19" d="M48.0229 28.3143C47.9211 28.3143 47.8115 28.2752 47.7411 28.1892C46.0421 26.3838 42.3075 28.2517 42.2762 28.2674C42.0805 28.3612 41.8456 28.2908 41.7517 28.0954C41.6577 27.9001 41.7282 27.6656 41.9239 27.5718C42.0961 27.4858 46.2144 25.4147 48.3204 27.65C48.4692 27.8063 48.4614 28.0564 48.3048 28.2049C48.2265 28.2752 48.1325 28.3143 48.0386 28.3143H48.0229Z" fill="white"/>
<path id="Vector_20" d="M36.577 48.3141C32.6154 48.3141 29.6638 46.7432 29.609 46.7198C29.4211 46.6182 29.3506 46.3759 29.4524 46.1883C29.5542 46.0007 29.789 45.9304 29.9848 46.032C30.0552 46.0711 37.5165 50.0179 44.4298 44.9535C44.602 44.8284 44.8447 44.8597 44.9778 45.0394C45.1031 45.2114 45.0718 45.4615 44.8917 45.5865C42.0419 47.6811 39.0981 48.3219 36.5692 48.3219L36.577 48.3141Z" fill="white"/>
<path id="Vector_21" d="M40.4914 23.2264C40.3583 23.2264 40.233 23.1638 40.1625 23.0466C39.1838 21.4835 37.7198 22.0619 37.6572 22.0853C37.4614 22.1713 37.2265 22.0697 37.1483 21.8743C37.07 21.6789 37.1561 21.4523 37.3597 21.3663C38.0956 21.0615 39.7632 20.9286 40.8359 22.6324C40.9533 22.8122 40.8985 23.0544 40.7106 23.1717C40.6479 23.2107 40.5775 23.2342 40.4992 23.2342L40.4914 23.2264Z" fill="black"/>
</g>
</svg>
