<svg width="74" height="73" viewBox="0 0 74 73" fill="none" xmlns="http://www.w3.org/2000/svg">
<g id="Frame 33">
<path id="Vector" d="M73.1799 36.5C73.1799 43.1627 71.3949 49.4104 68.271 54.7892C68.1535 54.9927 68.0283 55.1963 67.903 55.3998C67.6133 55.8852 67.308 56.3707 66.987 56.8404C66.8539 57.0361 66.7208 57.2319 66.572 57.4276C61.8118 64.2469 54.7655 69.3359 46.5605 71.6455C46.3882 71.6925 46.2081 71.7395 46.0359 71.7865C43.0529 72.5772 39.9134 73 36.6799 73C24.067 73 12.9416 66.6035 6.4042 56.8717C5.78568 55.9714 5.21415 55.0319 4.68959 54.0767C1.81625 48.8624 0.179932 42.873 0.179932 36.5C0.179932 16.3397 16.5196 0 36.6799 0C56.8403 0 73.1799 16.3397 73.1799 36.5Z" fill="#B7C1FA"/>
<path id="Vector_2" d="M21.0371 31.5284C21.0371 31.5284 17.1303 10.7809 32.3113 6.9837C47.4922 3.18651 48.4082 24.7326 48.4082 24.7326C48.4082 24.7326 64.928 27.88 65.0376 43.9456C65.1707 64.0277 45.7698 60.6454 45.7698 60.6454L27.3867 53.1607C27.3867 53.1607 8.97225 43.1314 21.045 31.5284H21.0371Z" fill="black"/>
<path id="Vector_3" d="M66.5719 57.4276C61.8117 64.2469 54.7654 69.3359 46.5603 71.6455C46.3881 71.6925 46.208 71.7395 46.0358 71.7865C43.0528 72.5772 39.9133 73 36.6798 73C24.0669 73 12.9415 66.6035 6.40405 56.8717C11.3052 50.1699 17.4511 45.0965 21.632 43.2958C27.8171 40.6338 37.6271 38.8488 46.6856 41.4402C46.7091 41.4481 46.7404 41.4481 46.7717 41.4559C49.4963 42.2388 52.1426 43.4132 54.6088 45.0809C59.9405 48.6823 63.8238 52.8631 66.5719 57.4276Z" fill="#F7734F"/>
<path id="Vector_4" d="M29.5083 35.1377V35.3569L29.6962 39.5377L29.8293 42.8182C29.8293 42.8182 29.5475 43.5776 33.3681 43.3349C38.4806 42.9826 40.1326 40.7904 40.1326 40.7904L40.3518 33.1021L38.8016 33.3996L29.5161 35.1377H29.5083Z" fill="#FCA397"/>
<path id="Vector_5" d="M29.5083 35.3648L29.6962 39.5456C32.1781 39.2402 36.7034 38.1676 38.5354 34.2608C38.6764 33.9398 38.7703 33.658 38.8016 33.4231L29.5318 35.3099L29.5161 35.3726L29.5083 35.3648Z" fill="black"/>
<path id="Vector_6" d="M27.8876 15.3532C27.8876 15.3532 23.1274 26.2359 24.842 32.3583C26.5566 38.473 32.1311 37.51 35.4585 36.3278C38.7938 35.1456 40.3361 33.1021 40.3361 33.1021C40.3361 33.1021 43.4522 34.1591 45.5348 31.2622C47.6173 28.3654 46.3333 25.038 44.5561 24.2785C42.7789 23.5191 40.665 24.8031 40.665 24.8031L42.3248 21.6401C42.3248 21.6401 35.3489 5.55878 27.8798 15.361L27.8876 15.3532Z" fill="#FCA397"/>
<path id="Vector_7" d="M29.3675 13.7403C29.3675 13.7403 29.023 19.534 34.8479 22.1646C40.6729 24.7953 44.564 24.2785 44.564 24.2785L44.1882 16.7233L36.8914 8.80008L30.3696 10.8748L29.3596 13.7403H29.3675Z" fill="black"/>
<path id="Vector_8" d="M40.2812 23.1276L40.3047 26.4238L43.2407 23.5269L40.2812 23.1276Z" fill="black"/>
<path id="Vector_9" d="M67.903 55.3998C67.6133 55.8852 67.308 56.3707 66.987 56.8404C66.8539 57.0361 66.7208 57.2319 66.572 57.4276C61.8118 64.2469 54.7655 69.3359 46.5604 71.6455C46.3882 71.6925 46.2081 71.7395 46.0359 71.7865L46.537 41.4168C46.537 41.4168 46.5918 41.4246 46.6857 41.4403C46.7092 41.4481 46.7405 41.4481 46.7718 41.4559C48.5726 41.7613 60.3713 44.0944 66.7051 53.3799C67.1357 53.9984 67.5272 54.6795 67.903 55.3998Z" fill="#F7734F"/>
<path id="Vector_10" d="M32.2642 43.789C29.9624 43.789 28.24 43.3741 28.0991 43.3428C27.8877 43.288 27.7624 43.0766 27.8094 42.873C27.8642 42.6616 28.0756 42.5364 28.2792 42.5833C28.3496 42.599 35.2472 44.2431 39.9839 40.7904C40.1561 40.6652 40.4067 40.7043 40.5319 40.8765C40.6572 41.0488 40.6181 41.2993 40.4458 41.4246C37.8465 43.3193 34.7148 43.789 32.2564 43.789H32.2642Z" fill="#7772D3"/>
<path id="Vector_11" d="M26.541 19.3304C26.3766 19.3304 26.22 19.2208 26.1652 19.0564C26.1026 18.8528 26.2122 18.6336 26.4236 18.5632L28.5923 17.882C28.7959 17.8194 29.0151 17.929 29.0856 18.1404C29.1482 18.3439 29.0386 18.5632 28.8272 18.6336L26.6585 19.3148C26.6585 19.3148 26.5802 19.3304 26.541 19.3304Z" fill="black"/>
<path id="Vector_12" d="M40.9 29.8764C40.7982 29.8764 40.6886 29.8373 40.6103 29.7512C40.4616 29.5946 40.4772 29.3441 40.6338 29.1953L43.9925 26.1106C44.1491 25.9618 44.3997 25.9775 44.5484 26.1341C44.6972 26.2906 44.6815 26.5412 44.5249 26.6899L41.1662 29.7747C41.0879 29.8451 40.9939 29.8764 40.9 29.8764Z" fill="black"/>
<path id="Vector_13" d="M44.2979 29.4693C44.2431 29.4693 44.1883 29.4615 44.1413 29.438L42.137 28.5611C41.9413 28.475 41.8473 28.2401 41.9334 28.0444C42.0195 27.8487 42.2544 27.7547 42.4502 27.8408L44.4544 28.7177C44.6502 28.8038 44.7441 29.0387 44.658 29.2344C44.5954 29.3832 44.4466 29.4693 44.2979 29.4693Z" fill="black"/>
<path id="Vector_14" d="M27.2066 24.8188C27.2066 24.8188 27.1518 24.8188 27.1283 24.8109C26.9169 24.764 26.7838 24.5604 26.823 24.349L27.2223 22.423L26.4394 21.5148C26.2984 21.3504 26.3141 21.1077 26.4785 20.9589C26.6429 20.818 26.8856 20.8337 27.0344 20.9981L27.9504 22.055C28.0287 22.149 28.06 22.2742 28.0365 22.3917L27.5981 24.5056C27.5589 24.6935 27.3945 24.8188 27.2145 24.8188H27.2066Z" fill="black"/>
<path id="Vector_15" d="M33.7752 25.1554C33.7752 25.1554 33.7204 25.1554 33.6969 25.1476C33.4855 25.1006 33.3525 24.897 33.3916 24.6857L33.7909 22.7597L33.008 21.8515C32.867 21.6871 32.8827 21.4443 33.0471 21.2956C33.2115 21.1547 33.4542 21.1703 33.603 21.3347L34.519 22.3917C34.5973 22.4856 34.6286 22.6109 34.6051 22.7283L34.1667 24.8422C34.1275 25.0301 33.9631 25.1554 33.7831 25.1554H33.7752Z" fill="black"/>
<path id="Vector_16" d="M28.5064 29.6024C28.3263 29.6024 28.1619 29.4772 28.1227 29.2893C27.3946 25.8052 29.0779 24.0515 29.1484 23.981C29.2971 23.8244 29.5477 23.8244 29.7042 23.981C29.8608 24.1298 29.8608 24.3803 29.7042 24.5369C29.6416 24.6074 28.248 26.0949 28.8822 29.1327C28.9292 29.3441 28.7882 29.5555 28.5768 29.5946C28.5533 29.5946 28.522 29.6024 28.4985 29.6024H28.5064Z" fill="black"/>
<path id="Vector_17" d="M32.0449 32.9455C31.81 32.9455 31.2541 32.8359 30.0954 31.5519C29.9623 31.4032 29.9153 31.1996 29.9623 31.0117C30.0171 30.816 30.1737 30.6594 30.3773 30.5967C33.1723 29.759 33.5481 30.0487 33.7125 30.1661C33.8535 30.2679 34.0648 30.5263 33.9083 31.043C33.6969 31.7555 32.8043 32.8907 32.1154 32.9299C32.0997 32.9299 32.0762 32.9299 32.0449 32.9299V32.9455ZM30.9018 31.2701C31.5282 31.9199 31.9744 32.1548 32.0684 32.1626C32.1389 32.1626 32.3972 32.006 32.7182 31.5989C32.9922 31.2544 33.1332 30.9491 33.1723 30.7925C32.9453 30.816 32.2563 30.8708 30.9018 31.2622V31.2701Z" fill="black"/>
<path id="Vector_18" d="M19.0016 55.2276C18.9624 55.2746 15.22 59.2831 15.9325 66.4939C15.7054 66.353 15.4941 66.1964 15.2748 66.0398C15.2122 66.0006 15.1574 65.9537 15.0948 65.9067C14.6328 58.7507 18.3909 54.75 18.4379 54.6952C18.5866 54.5386 18.8293 54.5386 18.9937 54.6795C19.1503 54.8283 19.1503 55.0788 18.9937 55.2354L19.0016 55.2276Z" fill="#7772D3"/>
</g>
</svg>
