<svg width="74" height="74" viewBox="0 0 74 74" fill="none" xmlns="http://www.w3.org/2000/svg">
<g id="Frame 44">
<path id="Vector" d="M73.0801 36.9039C73.0801 42.4464 71.8432 47.6915 69.6356 52.3964C63.8112 64.8044 51.1996 73.4 36.584 73.4C24.0194 73.4 12.9422 67.059 6.37412 57.3987C2.40511 51.5587 0.0800781 44.5053 0.0800781 36.9039C0.0800781 16.7457 16.4258 0.399994 36.584 0.399994C56.7422 0.399994 73.0801 16.7457 73.0801 36.9039Z" fill="#B7C1FA"/>
<path id="Vector_2" d="M11.3608 57.8293C11.3608 57.8293 5.39556 56.0366 7.21175 47.3079C8.77744 39.7848 18.6334 38.634 18.6334 38.634C18.6334 38.634 15.5334 33.9839 17.9132 28.3475C20.1991 22.938 23.3774 21.9125 23.3774 21.9125C23.3774 21.9125 23.1034 17.5286 26.5636 14.0919C30.0238 10.6552 34.7208 14.2563 34.7208 14.2563C34.7208 14.2563 43.6452 12.3149 49.1564 17.0511C54.6676 21.7951 52.5305 29.9523 52.5305 29.9523C52.5305 29.9523 61.2983 33.115 63.4355 42.3916C65.5726 51.6605 60.0379 56.6393 60.0379 56.6393L11.3608 57.8214V57.8293Z" fill="black"/>
<path id="Vector_3" d="M69.6357 52.3963C63.8114 64.8044 51.1998 73.4 36.5841 73.4C24.0195 73.4 12.9423 67.059 6.37427 57.3987C12.7075 48.9675 20.6063 42.8535 30.3606 41.9924C45.3989 40.6694 54.8478 43.5737 64.7899 48.9049C66.3086 49.719 67.9526 50.9089 69.6357 52.3963Z" fill="#7772D3"/>
<path id="Vector_4" d="M41.4062 37.1309L41.7898 43.2214C41.7898 43.2214 39.6056 45.3116 36.6622 45.523C32.6931 45.8126 31.104 43.7146 31.104 43.7146L30.7595 35.6905L41.3983 37.1309H41.4062Z" fill="#F27E64"/>
<path id="Vector_5" d="M41.4063 37.1231C41.4063 37.1231 39.7623 43.0336 34.8148 41.7967C31.245 40.9042 30.8145 36.3403 30.8145 36.3403L41.4063 37.1231Z" fill="black"/>
<path id="Vector_6" d="M28.1371 20.4407C28.1371 20.4407 26.634 31.4631 30.4699 36.489C34.3059 41.5148 38.8307 39.7299 40.8035 38.0233C43.4729 35.7296 43.88 32.7235 43.88 32.7235C43.88 32.7235 47.7551 33.2715 48.8589 30.0775C50.0175 26.7191 47.4889 24.2062 45.5631 24.1592C43.6373 24.1122 43.4338 24.4723 43.4338 24.4723L43.8017 20.9339C43.8017 20.9339 31.4407 8.63546 28.1371 20.4407Z" fill="#F27E64"/>
<path id="Vector_7" d="M30.2665 25.4509C30.2665 25.4509 24.3248 23.2903 24.1212 27.8151C23.8864 33.0524 30.11 32.7549 30.11 32.7549L30.2665 25.4509Z" fill="#F27E64"/>
<path id="Vector_8" d="M44.389 24.7699C44.389 24.7699 42.4084 25.7249 37.9618 22.8362C33.5153 19.9476 34.5486 16.1899 34.5486 16.1899C34.5486 16.1899 28.9043 20.1746 27.8475 24.8168C26.7907 29.4669 25.3737 14.1624 32.0201 14.0997C38.6664 14.0293 48.8355 17.8026 44.3812 24.7699H44.389Z" fill="black"/>
<path id="Vector_9" d="M27.6124 30.3515C27.4871 30.3515 27.3618 30.2889 27.2836 30.1793L25.1621 26.9618C25.0446 26.7818 25.0916 26.5391 25.2717 26.4217C25.4517 26.3043 25.6944 26.3512 25.8118 26.5313L27.9333 29.7488C28.0508 29.9288 28.0038 30.1715 27.8237 30.2889C27.7611 30.3359 27.6828 30.3515 27.6045 30.3515H27.6124Z" fill="black"/>
<path id="Vector_10" d="M44.3262 29.5452C44.2244 29.5452 44.1226 29.5061 44.0443 29.4278C43.8956 29.2712 43.9034 29.0207 44.06 28.872L46.8782 26.1712C47.0348 26.0224 47.2775 26.0302 47.434 26.1868C47.5828 26.3434 47.5749 26.5939 47.4184 26.7426L44.6002 29.4434C44.5219 29.5139 44.4279 29.553 44.3262 29.553V29.5452Z" fill="black"/>
<path id="Vector_11" d="M47.082 29.8583C47.0037 29.8583 46.9332 29.8349 46.8628 29.7957L45.0466 28.5823C44.8665 28.4649 44.8195 28.2222 44.937 28.0421C45.0544 27.8621 45.2971 27.8151 45.4771 27.9325L47.2933 29.1459C47.4734 29.2634 47.5203 29.5061 47.4029 29.6861C47.3246 29.7957 47.2072 29.8583 47.0741 29.8583H47.082Z" fill="black"/>
<path id="Vector_12" d="M25.3031 29.4747C25.0996 29.4747 24.9273 29.3182 24.9117 29.1146C24.896 28.8954 25.0604 28.7154 25.2718 28.6919L26.9236 28.5745C27.135 28.551 27.3228 28.7232 27.3463 28.9346C27.362 29.1538 27.1976 29.3338 26.9862 29.3573L25.3344 29.4747C25.3344 29.4747 25.3188 29.4747 25.3031 29.4747Z" fill="black"/>
<path id="Vector_13" d="M34.4624 31.7607C34.2823 31.7607 34.1179 31.6354 34.0788 31.4554C33.4212 28.4884 34.3058 26.0459 34.345 25.9442C34.4232 25.7406 34.6424 25.6388 34.846 25.7171C35.0495 25.7954 35.1513 26.0146 35.073 26.2182C35.0652 26.2416 34.2275 28.5589 34.8381 31.2831C34.8851 31.4945 34.752 31.7059 34.5407 31.7529C34.5094 31.7529 34.4859 31.7607 34.4545 31.7607H34.4624Z" fill="black"/>
<path id="Vector_14" d="M35.934 34.7746C34.7285 34.7746 33.7029 33.8665 33.656 33.8273C33.5464 33.7256 33.4994 33.569 33.5385 33.4202C33.5855 33.2715 33.7029 33.1697 33.8595 33.1463L37.5937 32.5983C37.7346 32.5826 37.8755 32.6374 37.9616 32.7548C38.0477 32.8723 38.0633 33.021 38.0007 33.1541C37.9694 33.2167 37.2257 34.7746 35.9262 34.7746H35.934ZM35.0181 33.7725C35.2921 33.8978 35.6052 33.9917 35.934 33.9917C36.2941 33.9917 36.5994 33.7647 36.8343 33.5064L35.0181 33.7725Z" fill="black"/>
<path id="Vector_15" d="M30.5794 22.9693C30.4698 22.9693 30.368 22.9302 30.2897 22.8441C30.141 22.6875 30.1567 22.437 30.3132 22.2882C31.1196 21.5524 32.4895 21.5289 32.5443 21.5289C32.7635 21.5289 32.9357 21.7011 32.9357 21.9203C32.9357 22.1395 32.7635 22.3117 32.5443 22.3117C32.5365 22.3117 31.417 22.3352 30.8299 22.8676C30.7516 22.938 30.6577 22.9693 30.5637 22.9693H30.5794Z" fill="black"/>
<path id="Vector_16" d="M39.1203 23.3373C39.0185 23.3373 38.9246 23.2981 38.8463 23.2277C38.2826 22.6797 37.1632 22.6249 37.1475 22.6249C36.9283 22.6171 36.7639 22.4292 36.7718 22.2178C36.7796 21.9986 36.9596 21.8421 37.1788 21.8421C37.2336 21.8421 38.6036 21.9047 39.3864 22.6719C39.543 22.8206 39.543 23.0711 39.3864 23.2277C39.3082 23.306 39.2064 23.3451 39.1046 23.3451L39.1203 23.3373Z" fill="black"/>
<path id="Vector_17" d="M36.1692 46.1962H36.1144C31.1511 46.1727 30.1256 43.284 30.0865 43.1588C30.016 42.9552 30.1256 42.7361 30.337 42.6656C30.5405 42.5951 30.7597 42.7047 30.8302 42.9083C30.8693 43.0179 31.7539 45.3899 36.1222 45.4055H36.177C40.0677 45.4055 41.5473 43.2997 41.6099 43.2057C41.7352 43.0257 41.9779 42.9787 42.1501 43.104C42.3301 43.2214 42.3771 43.4641 42.2597 43.6442C42.1892 43.7459 40.5139 46.1884 36.177 46.1884L36.1692 46.1962Z" fill="#46467F"/>
<path id="Vector_18" d="M27.8552 24.8168C27.8552 24.8168 22.6258 18.1861 26.5557 14.0997C30.4856 10.0133 41.7977 7.97789 47.1366 15.6889C50.9256 21.1609 44.3889 24.7699 44.3889 24.7699L37.1241 17.3172L34.5564 16.1899L30.2664 17.3172L27.8552 24.8168Z" fill="black"/>
<path id="Vector_19" d="M38.7993 27.1027C38.5723 27.1027 38.4001 26.9148 38.4079 26.6956L38.4627 25.0204L37.4215 24.2453C37.2493 24.1122 37.2101 23.8696 37.3432 23.6974C37.4763 23.5251 37.719 23.486 37.8912 23.6191L39.0968 24.5193C39.1986 24.5976 39.2612 24.7151 39.2534 24.8481L39.1907 26.727C39.1907 26.9383 39.0107 27.1027 38.7993 27.1027Z" fill="black"/>
<path id="Vector_20" d="M31.9104 27.1027C31.6834 27.1027 31.5111 26.9148 31.519 26.6956L31.5738 25.0204L30.5326 24.2453C30.3604 24.1122 30.3212 23.8696 30.4543 23.6974C30.5874 23.5251 30.8301 23.486 31.0023 23.6191L32.2079 24.5193C32.3096 24.5976 32.3723 24.7151 32.3644 24.8481L32.3018 26.727C32.3018 26.9383 32.1217 27.1027 31.9104 27.1027Z" fill="black"/>
</g>
</svg>
