<svg width="74" height="74" viewBox="0 0 74 74" fill="none" xmlns="http://www.w3.org/2000/svg">
<g id="Frame 45">
<path id="Vector" d="M73.8999 36.9039C73.8999 45.6717 70.8077 53.7115 65.6566 60.0056C64.7172 61.1564 63.7073 62.2445 62.6348 63.27C60.4976 65.3211 58.1178 67.1059 55.5266 68.5855C50.1876 71.6464 44.0032 73.4 37.4038 73.4C35.2119 73.4 33.0669 73.2043 30.9845 72.8363C29.3327 72.5467 27.7201 72.1396 26.1544 71.6229C21.3321 70.0729 16.9482 67.5365 13.2375 64.2486C5.66741 57.5709 0.899902 47.7932 0.899902 36.9039C0.899902 16.7457 17.2456 0.399994 37.4038 0.399994C57.562 0.399994 73.8999 16.7457 73.8999 36.9039Z" fill="#B7C1FA"/>
<path id="Vector_2" d="M31.8458 17.3564C31.8458 17.3564 24.8159 12.5967 16.5021 17.2076C8.18835 21.8264 10.7952 30.3907 10.7952 30.3907C10.7952 30.3907 4.27414 38.5635 7.31939 46.6816C10.3646 54.7997 23.9078 57.1091 29.92 47.9498C35.9323 38.7906 26.3816 30.6333 26.3816 30.6333C26.3816 30.6333 34.1317 30.5942 31.8302 17.3564H31.8458Z" fill="#E56445"/>
<path id="Vector_3" d="M65.6566 60.0056C64.7172 61.1564 63.7073 62.2445 62.6348 63.27C60.4977 65.3211 58.1178 67.106 55.5266 68.5855C55.5971 57.9076 59.7853 50.7289 59.7853 50.7289C60.0749 51.2612 62.2512 55.1911 65.6566 60.0056Z" fill="#FCA397"/>
<path id="Vector_4" d="M51.1742 24.5663C51.1742 24.5663 54.1803 15.2818 53.7654 12.9333C53.3583 10.5848 43.5023 7.55518 35.6817 11.2032C27.8612 14.8513 27.3288 25.1456 29.0902 29.3965C33.6307 40.3563 43.0796 35.3148 43.0796 35.3148C43.0796 35.3148 58.1258 30.7273 51.1742 24.5663Z" fill="#E56445"/>
<path id="Vector_5" d="M62.6347 63.27C60.4976 65.321 58.1177 67.1059 55.5265 68.5855C50.1875 71.6464 44.0031 73.4 37.4037 73.4C35.2118 73.4 33.0668 73.2043 30.9844 72.8363C29.3326 72.5467 27.72 72.1396 26.1543 71.6229C26.5535 63.8806 27.078 55.8956 27.7278 50.5253C28.1427 47.0887 28.6124 44.7245 29.1369 44.1687C29.6066 43.6676 30.546 43.1979 31.8455 42.8065C33.8575 42.2037 36.6757 41.7967 39.7992 41.7732C43.0167 41.734 46.5395 42.1098 49.8118 43.0805C52.7787 43.973 55.5422 45.3508 57.6558 47.3862C58.47 48.169 59.1824 49.3041 59.7852 50.7289C61.1552 53.8837 62.0476 58.3303 62.6347 63.27Z" fill="#507849"/>
<path id="Vector_6" d="M49.8042 36.7161V36.9431V41.2879V44.6932C49.8042 44.6932 50.1252 45.4682 46.3362 45.3743C41.2634 45.2256 39.5333 43.0101 39.5333 43.0101L38.9854 35.0486L40.5354 35.2913L49.7964 36.7082L49.8042 36.7161Z" fill="#FCA397"/>
<path id="Vector_7" d="M49.8198 37.1779L49.8041 41.186C47.4164 40.9981 43.0404 40.1448 41.1302 36.4733C40.9815 36.1758 40.8797 35.9018 40.8406 35.6748L49.7885 37.1074L49.8041 37.17L49.8198 37.1779Z" fill="black"/>
<path id="Vector_8" d="M50.5792 17.9513C50.5792 17.9513 55.5659 28.1831 54.1724 34.1092C52.779 40.0353 47.4008 39.3307 44.1599 38.3365C40.9189 37.3345 39.361 35.44 39.361 35.44C39.361 35.44 36.4254 36.5752 34.3117 33.8822C32.198 31.1892 33.294 27.956 34.9693 27.1575C36.6446 26.359 38.7191 27.502 38.7191 27.502L37.0047 24.5429C37.0047 24.5429 43.0404 8.87038 50.5792 17.9513Z" fill="#FCA397"/>
<path id="Vector_9" d="M50.6338 31.2753C50.6338 31.2753 50.5634 31.2753 50.5321 31.2596C50.3207 31.2048 50.2033 30.9856 50.2581 30.7821C50.7747 28.8798 49.2873 26.8679 49.2717 26.8522C49.1386 26.68 49.1777 26.4373 49.35 26.3042C49.5222 26.1711 49.7649 26.2103 49.898 26.3825C49.9684 26.4764 51.6359 28.7154 51.0174 30.9935C50.9705 31.1657 50.8139 31.2831 50.6417 31.2831L50.6338 31.2753Z" fill="black"/>
<path id="Vector_10" d="M38.4294 32.473C38.3276 32.473 38.2337 32.4339 38.1554 32.3635L35.2197 29.4591C35.0632 29.3104 35.0632 29.0599 35.2197 28.9033C35.3685 28.7467 35.619 28.7467 35.7755 28.9033L38.7112 31.8076C38.8678 31.9564 38.8678 32.2069 38.7112 32.3635C38.6329 32.4417 38.5311 32.4809 38.4294 32.4809V32.473Z" fill="black"/>
<path id="Vector_11" d="M35.3999 31.7685C35.212 31.7685 35.0476 31.6354 35.0163 31.4475C34.9772 31.2362 35.1181 31.0326 35.3294 30.9935L37.2787 30.6255C37.4901 30.5864 37.6936 30.7273 37.7328 30.9387C37.7719 31.15 37.631 31.3536 37.4196 31.3927L35.4703 31.7607C35.4703 31.7607 35.4234 31.7607 35.3999 31.7607V31.7685Z" fill="black"/>
<path id="Vector_12" d="M47.3929 34.6023C47.1268 34.6023 46.8528 34.5475 46.5631 34.4223C45.1775 33.7882 44.6765 32.3165 44.6608 32.2538C44.6139 32.1129 44.653 31.9642 44.7548 31.8624C44.8565 31.7606 45.0053 31.7215 45.1462 31.7606L49.2718 32.974C49.397 33.0132 49.4988 33.115 49.5379 33.2402C49.5771 33.3733 49.5379 33.5064 49.4518 33.6081C49.4049 33.6551 48.5281 34.6102 47.4008 34.6102L47.3929 34.6023ZM45.8038 32.7627C46.0465 33.1071 46.3987 33.4829 46.8919 33.7099C47.4243 33.9526 47.9566 33.7491 48.3324 33.5064L45.8038 32.7627Z" fill="black"/>
<path id="Vector_13" d="M43.8389 23.8931C43.7841 23.8931 43.7293 23.8774 43.6745 23.8539C43.4788 23.76 43.3927 23.533 43.4866 23.3373C44.1677 21.8968 45.9604 22.2021 46.0387 22.2178C46.25 22.2569 46.391 22.4605 46.3518 22.6718C46.3127 22.8832 46.1091 23.0241 45.8978 22.9928C45.843 22.985 44.6139 22.7814 44.1912 23.6739C44.1285 23.8148 43.9876 23.9009 43.8389 23.9009V23.8931Z" fill="black"/>
<path id="Vector_14" d="M49.4206 22.4996C49.3502 22.4996 49.2797 22.4761 49.2093 22.437C49.0292 22.3196 48.9744 22.0769 49.0918 21.8968C49.3737 21.4584 49.7572 21.1844 50.2113 21.114C51.135 20.9652 52.0275 21.6933 52.0666 21.7246C52.231 21.8577 52.2545 22.1082 52.1214 22.2726C51.9883 22.437 51.7378 22.4683 51.5734 22.3274C51.3934 22.1787 50.8219 21.8107 50.3366 21.889C50.1017 21.9281 49.9138 22.0691 49.7572 22.3196C49.679 22.437 49.5537 22.4996 49.4285 22.4996H49.4206Z" fill="black"/>
<path id="Vector_15" d="M51.5262 26.8913C51.3383 26.8913 51.1739 26.7583 51.1426 26.5704L50.7903 24.6446C50.7668 24.535 50.7903 24.4254 50.8608 24.3393L51.5653 23.3999C51.6984 23.2276 51.9411 23.1885 52.1133 23.3216C52.2855 23.4547 52.3247 23.6974 52.1916 23.8696L51.5888 24.6759L51.9098 26.4373C51.9489 26.6487 51.808 26.8522 51.5966 26.8913C51.5731 26.8913 51.5497 26.8913 51.5262 26.8913Z" fill="black"/>
<path id="Vector_16" d="M44.9738 27.5568C44.7859 27.5568 44.6215 27.4237 44.5902 27.228L44.2771 25.2944C44.2614 25.1769 44.2927 25.0517 44.3788 24.9656L45.4279 23.8617C45.5766 23.7052 45.8271 23.6974 45.9837 23.8461C46.1402 23.9948 46.1481 24.2453 45.9993 24.4019L45.0834 25.3648L45.3652 27.1105C45.3965 27.3219 45.2556 27.5254 45.0443 27.5568C45.0208 27.5568 45.0051 27.5568 44.9816 27.5568H44.9738Z" fill="black"/>
<path id="Vector_17" d="M38.7111 27.5098C38.7111 27.5098 43.1811 25.0204 44.7077 21.6855C46.242 18.3506 46.242 16.7066 46.242 16.7066C46.242 16.7066 46.9857 18.8359 48.661 19.2821C50.3363 19.7284 51.3696 19.7518 51.3696 19.7518L52.5361 22.7736L51.5888 15.5167C51.5888 15.5167 47.0092 13.2699 46.4064 13.2934C45.8036 13.3169 38.257 14.9374 37.8343 15.4149C37.4116 15.8846 35.2274 21.8655 35.2274 21.8655L35.157 24.535L38.7033 27.5255L38.7111 27.5098Z" fill="#E56445"/>
<path id="Vector_18" d="M30.9846 72.8363C29.3328 72.5467 27.7201 72.1396 26.1544 71.6229C21.3321 70.0729 16.9482 67.5365 13.2375 64.2486C15.1164 60.3187 17.504 56.7881 19.8447 53.8211C24.5653 47.848 29.1371 44.1687 29.1371 44.1687L29.5676 46.1493C30.507 50.494 30.9767 54.9249 30.9767 59.3715C30.9767 63.8337 30.9767 68.1236 30.9767 72.8285L30.9846 72.8363Z" fill="#FCA397"/>
<path id="Vector_19" d="M46.2032 45.7422C41.6627 45.7422 38.7584 42.9709 38.727 42.9396C38.5705 42.7909 38.5705 42.5404 38.727 42.3838C38.8758 42.2272 39.1263 42.2272 39.2829 42.3838C39.4707 42.5639 43.9016 46.7677 50.4932 44.0982C50.6889 44.02 50.9237 44.1139 51.002 44.3174C51.0803 44.521 50.9863 44.748 50.7828 44.8263C49.131 45.4917 47.5966 45.75 46.211 45.75L46.2032 45.7422Z" fill="white"/>
</g>
</svg>
