<svg width="74" height="74" viewBox="0 0 74 74" fill="none" xmlns="http://www.w3.org/2000/svg">
<g id="Frame 40">
<path id="Vector" d="M73.53 36.54C73.53 43.0931 71.8 49.2469 68.7704 54.5708C66.641 58.3132 63.8619 61.6484 60.5897 64.4122C57.1217 67.3481 53.0979 69.6499 48.6983 71.1375C45.0346 72.3667 41.1126 73.04 37.0339 73.04C26.2229 73.04 16.5 68.3346 9.82236 60.8655C9.42311 60.4271 9.03953 59.973 8.66377 59.5111C7.58345 58.1801 6.59705 56.7708 5.71244 55.2989C2.4245 49.8106 0.530029 43.3984 0.530029 36.54C0.530029 16.3797 16.8758 0.0400085 37.0339 0.0400085C57.1921 0.0400085 73.53 16.3797 73.53 36.54Z" fill="#B7C1FA"/>
<path id="Vector_2" d="M27.3737 28.7577C27.3737 28.7577 18.8877 35.1621 18.2536 42.9365C17.2985 54.7039 30.6773 49.5522 32.149 42.0518C33.6208 34.5514 27.3658 28.7577 27.3658 28.7577H27.3737Z" fill="black"/>
<path id="Vector_3" d="M60.5895 64.4122C57.1215 67.3481 53.0977 69.6499 48.6981 71.1375C45.0344 72.3667 41.1124 73.04 37.0338 73.04C26.2227 73.04 16.4998 68.3346 9.82216 60.8655C9.42292 60.4271 9.03934 59.973 8.66357 59.511L31.7652 42.7721L32.6577 42.1223L41.7308 42.8582L45.4963 43.1635L60.5895 64.4122Z" fill="#FCB35B"/>
<path id="Vector_4" d="M26.6145 27.9591C26.6145 27.9591 23.5536 24.5769 24.4303 19.3313C25.0253 15.7768 26.6145 14.6259 26.6145 14.6259C26.6145 14.6259 24.2033 9.77178 31.382 10.0693C38.5528 10.3668 42.7802 13.89 42.7802 13.89C42.7802 13.89 46.0603 12.2771 47.532 16.1056C49.0038 19.9263 47.532 25.5712 47.532 25.5712L26.6223 27.9748L26.6145 27.9591Z" fill="black"/>
<path id="Vector_5" d="M32.6578 42.7094L9.82232 60.8655C9.42307 60.4271 9.0395 59.973 8.66373 59.511C7.58341 58.1801 6.59701 56.7708 5.7124 55.2989C6.41696 54.6647 7.15283 54.0306 7.91219 53.3964C18.3788 44.6668 28.728 43.0618 31.7654 42.7721C32.3525 42.7173 32.6578 42.7094 32.6578 42.7094Z" fill="#FCB35B"/>
<path id="Vector_6" d="M42.3651 33.8702L42.1928 43.2262C42.1928 43.2262 40.5645 45.8646 35.4291 46.1465C31.601 46.3579 30.4346 44.2205 30.4346 44.2205L31.5149 36.0624L40.8072 34.1834L42.3651 33.8624V33.8702Z" fill="#F27E64"/>
<path id="Vector_7" d="M68.7703 54.5708C66.6409 58.3132 63.8618 61.6484 60.5896 64.4121C57.1216 67.3481 53.0978 69.6499 48.6982 71.1375L54.6008 63.9424L41.7309 42.8582L41.637 42.7094C41.637 42.7094 43.1165 42.7642 45.4964 43.1635C50.9136 44.0639 60.981 46.7337 68.7703 54.5708Z" fill="#FCB35B"/>
<path id="Vector_8" d="M42.3652 33.33C42.3338 33.5649 42.2399 33.8468 42.0912 34.1678C40.0245 38.4973 33.0807 40.1415 30.873 40.2824L31.5071 35.9685L42.373 33.33H42.3652Z" fill="black"/>
<path id="Vector_9" d="M30.0509 15.9647C30.0509 15.9647 25.1816 26.8317 26.8412 32.9777C28.5008 39.1237 34.0903 38.2155 37.4487 37.0567C40.7993 35.9058 42.3728 33.8702 42.3728 33.8702C42.3728 33.8702 45.4807 34.9585 47.6022 32.0773C49.7158 29.1962 48.4633 25.8452 46.6862 25.0701C44.9092 24.2872 42.7799 25.5556 42.7799 25.5556L44.4708 22.4004C44.4708 22.4004 37.6366 6.2173 30.0587 15.9647H30.0509Z" fill="#F27E64"/>
<path id="Vector_10" d="M42.7722 25.5556C42.7722 25.5556 38.0829 26.5029 34.8185 21.2808C31.5619 16.0587 31.8593 13.9135 31.8593 13.9135L28.6106 19.3078C28.6106 19.3078 27.8825 15.5733 29.3778 13.1853C30.873 10.7974 32.423 11.2985 32.423 11.2985L42.7644 13.8821L45.4886 22.1733L42.7644 25.5556H42.7722Z" fill="black"/>
<path id="Vector_11" d="M30.4188 29.8773C30.2544 29.8773 30.0979 29.7677 30.0431 29.6033C29.3229 27.2467 30.9825 24.8588 31.0529 24.7648C31.1782 24.5847 31.4209 24.5456 31.6009 24.6709C31.781 24.7961 31.8201 25.0388 31.6949 25.2189C31.6792 25.2424 30.184 27.3954 30.7946 29.3762C30.8572 29.5798 30.7398 29.799 30.5362 29.8617C30.4971 29.8773 30.458 29.8773 30.4188 29.8773Z" fill="black"/>
<path id="Vector_12" d="M43.2182 30.715C43.1243 30.715 43.0225 30.6759 42.9521 30.6054C42.7955 30.4567 42.7877 30.2061 42.9364 30.0495L45.9112 26.9178C46.06 26.7613 46.3105 26.7534 46.467 26.9022C46.6236 27.051 46.6314 27.3015 46.4827 27.4581L43.5079 30.5898C43.4296 30.6681 43.3278 30.715 43.2261 30.715H43.2182Z" fill="black"/>
<path id="Vector_13" d="M46.3578 29.8851C46.3578 29.8851 46.3186 29.8851 46.2951 29.8851L44.2441 29.5719C44.0327 29.5406 43.884 29.3371 43.9153 29.1257C43.9466 28.9143 44.1501 28.7655 44.3615 28.7969L46.4126 29.11C46.6239 29.1413 46.7727 29.3449 46.7413 29.5563C46.71 29.752 46.5456 29.8851 46.3578 29.8851Z" fill="black"/>
<path id="Vector_14" d="M34.3487 33.0012C33.3154 33.0012 32.1489 32.3044 31.9767 32.2026C31.8593 32.1321 31.7888 31.999 31.7888 31.8581C31.7888 31.7172 31.8749 31.5919 32.0002 31.5214L35.3038 29.799C35.4056 29.7442 35.5308 29.7364 35.6404 29.7833C35.75 29.8303 35.8283 29.9164 35.8596 30.0339C35.8831 30.1122 36.3998 31.8816 35.3038 32.7193C35.0298 32.9307 34.701 33.009 34.3487 33.009V33.0012ZM33.0257 31.8659C33.6598 32.1478 34.4505 32.3748 34.8184 32.093C35.2255 31.7798 35.2412 31.1691 35.1942 30.7307L33.0257 31.8659Z" fill="black"/>
<path id="Vector_15" d="M28.321 20.9363C28.1331 20.9363 27.9687 20.8032 27.9374 20.6153C27.8983 20.4039 28.0392 20.2004 28.2584 20.1612L30.192 19.8246C30.4034 19.7932 30.6069 19.9263 30.6461 20.1456C30.6852 20.3569 30.5443 20.5605 30.3251 20.5997L28.3915 20.9363C28.3915 20.9363 28.3445 20.9363 28.321 20.9363Z" fill="black"/>
<path id="Vector_16" d="M36.3685 22.2125C36.3059 22.2125 36.2511 22.1968 36.1884 22.1733L33.0101 20.5605C32.8144 20.4665 32.7361 20.2238 32.8379 20.0359C32.9318 19.8402 33.1745 19.7697 33.3624 19.8637L36.5407 21.4765C36.7364 21.5705 36.8147 21.8132 36.713 22.0011C36.6425 22.1342 36.5094 22.2125 36.3607 22.2125H36.3685Z" fill="black"/>
<path id="Vector_17" d="M48.6984 28.7577C48.6984 28.7577 55.4622 34.6218 54.5071 44.1814C53.5521 53.7409 44.0718 52.5117 42.0834 49.0277C39.0695 43.7429 42.3652 33.8702 42.3652 33.8702C42.3652 33.8702 48.1739 34.8411 48.6984 28.7577Z" fill="black"/>
<path id="Vector_18" d="M28.3209 25.4146C28.3209 25.4146 28.2426 25.4146 28.2034 25.399C27.9999 25.3363 27.8825 25.1171 27.9451 24.9136L28.4853 23.1441L28.0156 22.5648C27.8825 22.4004 27.906 22.1498 28.0703 22.0167C28.2347 21.8836 28.4853 21.9071 28.6183 22.0715L29.2211 22.8153C29.3072 22.9171 29.3307 23.0502 29.2916 23.1755L28.6888 25.1484C28.634 25.3128 28.4853 25.4225 28.313 25.4225L28.3209 25.4146Z" fill="black"/>
<path id="Vector_19" d="M34.2471 25.947C34.2471 25.947 34.1688 25.947 34.1296 25.9314C33.9261 25.8687 33.8087 25.6495 33.8713 25.4459L34.4115 23.6844L33.7147 22.8701C33.5738 22.7057 33.5895 22.4552 33.7539 22.3142C33.9183 22.1733 34.1688 22.189 34.3097 22.3534L35.1473 23.332C35.2334 23.4338 35.2648 23.5747 35.2256 23.7L34.6228 25.673C34.568 25.8374 34.4193 25.947 34.2471 25.947Z" fill="black"/>
<path id="Vector_20" d="M35.4449 46.5301C32.11 46.5301 30.1372 44.7137 30.1137 44.6824C29.9571 44.5337 29.9493 44.291 30.098 44.1266C30.2468 43.97 30.4895 43.9621 30.6539 44.1109C30.8104 44.2597 34.5524 47.6575 40.6194 44.2518C40.8073 44.1422 41.05 44.2127 41.1518 44.4006C41.2614 44.5885 41.1909 44.8312 41.003 44.933C38.8894 46.1152 37.0184 46.5223 35.4449 46.5223V46.5301Z" fill="white"/>
</g>
</svg>
