<svg width="34" height="34" viewBox="0 0 34 34" fill="none" xmlns="http://www.w3.org/2000/svg">
<g id="Light">
<g id="Vector">
<path d="M17 4.25V7.4375V4.25ZM26.0157 7.98433L23.7618 10.2383L26.0157 7.98433ZM29.75 17H26.5625H29.75ZM26.0157 26.0157L23.7618 23.7618L26.0157 26.0157ZM17 26.5625V29.75V26.5625ZM10.2383 23.7618L7.98433 26.0157L10.2383 23.7618ZM7.4375 17H4.25H7.4375ZM10.2383 10.2383L7.98433 7.98433L10.2383 10.2383ZM22.3125 17C22.3125 18.409 21.7528 19.7602 20.7565 20.7565C19.7602 21.7528 18.409 22.3125 17 22.3125C15.591 22.3125 14.2398 21.7528 13.2435 20.7565C12.2472 19.7602 11.6875 18.409 11.6875 17C11.6875 15.591 12.2472 14.2398 13.2435 13.2435C14.2398 12.2472 15.591 11.6875 17 11.6875C18.409 11.6875 19.7602 12.2472 20.7565 13.2435C21.7528 14.2398 22.3125 15.591 22.3125 17Z" fill="#382F73"/>
<path d="M17 4.25V7.4375M26.0157 7.98433L23.7618 10.2383M29.75 17H26.5625M26.0157 26.0157L23.7618 23.7618M17 26.5625V29.75M10.2383 23.7618L7.98433 26.0157M7.4375 17H4.25M10.2383 10.2383L7.98433 7.98433M22.3125 17C22.3125 18.409 21.7528 19.7602 20.7565 20.7565C19.7602 21.7528 18.409 22.3125 17 22.3125C15.591 22.3125 14.2398 21.7528 13.2435 20.7565C12.2472 19.7602 11.6875 18.409 11.6875 17C11.6875 15.591 12.2472 14.2398 13.2435 13.2435C14.2398 12.2472 15.591 11.6875 17 11.6875C18.409 11.6875 19.7602 12.2472 20.7565 13.2435C21.7528 14.2398 22.3125 15.591 22.3125 17Z" stroke="#382F73" stroke-width="1.5" stroke-linecap="round" stroke-linejoin="round"/>
</g>
</g>
</svg>
