<svg width="310" height="348" viewBox="0 0 310 348" fill="none" xmlns="http://www.w3.org/2000/svg">
<path d="M121.199 34.8C140.451 15.5805 171.664 15.5805 190.916 34.8L295.49 139.2C314.742 158.42 314.742 189.58 295.49 208.8L190.916 313.2C171.664 332.419 140.451 332.419 121.199 313.2L16.6248 208.8C-2.62689 189.58 -2.62688 158.42 16.6248 139.2L121.199 34.8Z" fill="url(#paint0_linear_492_9488)"/>
<g clip-path="url(#clip0_492_9488)">
<path opacity="0.05" d="M238.551 265.29C259.526 265.29 276.53 264.314 276.53 263.11C276.53 261.905 259.526 260.929 238.551 260.929C217.576 260.929 200.572 261.905 200.572 263.11C200.572 264.314 217.576 265.29 238.551 265.29Z" fill="url(#paint1_linear_492_9488)"/>
<path d="M264.865 254.387L263.491 246.009L255.197 246.325L254.99 254.387L258.889 261.388L265.906 255.787L264.865 254.387Z" fill="#FC8674"/>
<path d="M258.538 246.623L259.459 258.439C259.459 258.439 257.302 257.17 254.782 254.835L254.903 246.778L258.538 246.629V246.623Z" fill="#CC3636"/>
<path d="M265.366 254.284L265.165 249.401C265.165 249.401 255.617 250.399 254.84 249.693C254.679 249.55 254.702 254.336 254.673 254.588L253.696 263.838H278.382C278.67 263.838 278.9 263.523 278.9 263.138L278.819 262.564C278.647 261.296 277.842 260.194 276.68 259.644L265.366 254.284Z" fill="#4F6EE0"/>
<path d="M264.866 254.387C264.866 254.387 260.293 249.992 259.321 252.712C258.349 255.432 264.866 254.387 264.866 254.387Z" stroke="white" stroke-width="0.62" stroke-miterlimit="10"/>
<path d="M222.641 253.699L225.546 245.269L217.114 243.915L214.773 254.387L218.667 261.388L225.684 255.787L222.641 253.699Z" fill="#FC8674"/>
<path d="M220.168 244.667L217.114 258.071C217.114 258.071 217.292 256.625 214.773 254.284L216.533 244.821L220.168 244.672V244.667Z" fill="#CC3636"/>
<path d="M225.149 254.284C225.149 254.284 225.908 253.05 225.908 249.888C225.908 249.303 215.877 249.429 215.095 248.724C214.934 248.58 214.485 254.336 214.457 254.588L213.479 263.838H238.166C238.453 263.838 238.683 263.523 238.683 263.138L238.637 262.782C238.447 261.377 237.556 260.154 236.267 259.546L225.155 254.278L225.149 254.284Z" fill="#4F6EE0"/>
<path d="M224.925 254.577C224.925 254.577 220.352 250.181 219.38 252.901C218.408 255.621 224.925 254.577 224.925 254.577Z" stroke="white" stroke-width="0.62" stroke-miterlimit="10"/>
<path d="M263.324 142.392C263.324 142.392 263.698 181.086 263.997 191.96C264.296 202.828 264.992 247.277 264.992 247.277L254.323 247.679C254.323 247.679 242.554 170.883 229.728 144.665L263.324 142.392Z" fill="#020F2B"/>
<path d="M247.305 144.47C247.305 144.47 256.341 189.923 256.341 196.901C256.341 203.879 257.958 246.922 257.958 246.922" stroke="white" stroke-width="0.62" stroke-miterlimit="10"/>
<path d="M258.538 141.027C258.538 141.027 251.377 172.886 247.432 195.07C241.41 213.823 226.271 246.927 226.271 246.927L215.659 246.474L227.237 198.955C227.922 196.155 228.353 193.297 228.531 190.411C229.193 179.514 227.03 157.496 226.127 143.391L258.544 141.032L258.538 141.027Z" fill="#002E55"/>
<path d="M237.631 143.006C237.631 143.006 241.099 185.516 237.981 192.132C234.864 198.743 221.037 246.778 221.037 246.778" stroke="white" stroke-width="0.62" stroke-miterlimit="10"/>
<path d="M250.072 142.639L239.017 157.662" stroke="#020F2B" stroke-width="0.62" stroke-miterlimit="10"/>
<path d="M295.62 104.6C295.62 104.6 273.096 124.454 268.524 123.72C263.957 122.985 240.806 82.7196 250.883 78.5593C250.883 78.5593 253.201 75.9369 255.622 78.0888C258.044 80.2406 265.268 85.4166 273.671 107.394C273.671 107.394 291.209 97.3294 292.514 96.2219C292.514 96.2219 297.57 89.3072 297.633 90.7073C297.703 92.1018 295.477 95.1775 296.086 95.3152C296.69 95.4529 303.633 90.3573 304.242 90.8451C304.846 91.3328 299.859 94.1962 300.13 94.334C300.4 94.4717 305.387 91.8894 305.657 92.446C305.928 93.0027 300.941 95.5906 301.142 95.7972C301.343 96.0038 306.129 93.4904 306.261 93.9093C306.393 94.3282 302.62 96.4916 302.287 97.1228C302.287 97.1228 306.399 95.4472 306.601 96.1473C306.802 96.8473 295.615 104.594 295.615 104.594L295.62 104.6Z" fill="#F27A68"/>
<path d="M261.852 105.065L272.596 98.1442C272.596 98.1442 258.734 74.3531 253.471 75.3229L261.852 105.065Z" fill="#FDC500"/>
<path d="M297.237 94.7586L295.35 98.1098C295.35 98.1098 296.127 95.4931 295.925 95.2119L297.237 94.7586Z" fill="#AB5218"/>
<path d="M221.715 93.0141C221.882 88.6415 222.992 80.6939 226.783 77.6584C230.59 74.6113 232.77 73.1882 237.378 71.5872L238.931 71.0478L241.007 70.2674L245.246 76.0803C246.799 77.5206 248.41 74.6744 248.41 74.6744L248.968 73.0906L253.477 75.3229C254.627 75.4721 256.399 79.2134 257.958 82.9032C259.344 86.1912 261.299 95.6021 261.466 99.2344L267.506 155.218L226.001 158.133C226.001 158.133 221.169 107.268 221.715 93.0084V93.0141Z" fill="#FFE3A6"/>
<path d="M222.222 88.0046C223.545 91.2008 225.057 94.3167 226.53 97.3408C236.083 116.972 245.378 136.694 255.335 156.073L226.001 158.133C226.001 158.133 221.169 107.268 221.715 93.0084C221.767 91.614 221.923 89.8466 222.222 87.9988V88.0046Z" fill="#FDC500"/>
<path d="M266.723 150.357L225.805 153.467" stroke="white" stroke-width="0.27" stroke-miterlimit="10"/>
<path d="M253.178 123.588C253.27 124.34 253.155 124.971 252.919 125.005C252.683 125.04 252.419 124.46 252.321 123.708C252.229 122.957 252.344 122.325 252.58 122.291C252.815 122.257 253.08 122.836 253.178 123.588Z" fill="white"/>
<path d="M247.806 45.8164C245.85 47.2453 243.498 53.6607 243.279 60.8107L245.355 62.1075L246.04 59.8237L246.166 59.6917L246.293 59.5654L247.576 60.5754L251.567 51.5375C251.982 51.4055 254.622 50.6251 255.45 51.9048C256.295 53.2016 257.319 54.5157 258.487 54.4239C259.004 54.3837 259.574 54.0509 260.017 53.7123C260.805 53.5115 261.466 52.9951 262.001 52.3179C263.917 50.2349 262.852 48.2609 260.88 46.8149C258.084 44.7433 250.94 42.8612 247.806 45.8164ZM244.769 57.7923C245.039 57.9874 245.407 58.3374 245.672 58.8883L245.212 58.3891L244.775 57.7923H244.769Z" fill="#020F2B"/>
<path d="M244.447 61.3902L240.455 70.6289C240.455 70.6289 242.669 74.6343 243.67 75.7762C247.524 80.189 249.06 74.9327 249.06 74.9327L251.107 69.8026L245.994 60.4893C245.994 60.4893 244.585 60.9541 244.343 61.2123C244.101 61.4706 244.447 61.3902 244.447 61.3902Z" fill="#FC8674"/>
<path d="M245.994 60.4893L251.107 69.8026C251.107 69.8026 250.831 71.4954 249.353 71.7823C247.288 72.1898 246.028 69.269 245.723 64.5922" fill="#CC3636"/>
<path d="M247.179 58.7391C247.023 58.94 246.73 58.917 246.615 58.6932C246.241 57.9358 244.458 56.2946 243.313 58.4465C241.755 61.3673 245.05 61.8493 245.16 62.3485C245.39 63.3585 246.655 65.6653 248.709 67.5532C249.957 68.7066 252.614 72.0233 254.742 70.9445C256.87 69.8715 256.882 67.6278 261.075 52.9377C261.075 52.9377 261.282 52.9893 260.097 53.0238C258.918 53.0582 258.82 52.0368 257.727 51.2965C256.842 50.694 252.637 48.9897 250.325 52.1343C249.261 53.5804 248.105 57.5398 247.179 58.7277V58.7391Z" fill="#FC8674"/>
<path d="M257.158 64.2193C257.158 64.2193 256.025 64.4029 253.736 63.4044C253.736 63.4044 254.242 66.1186 255.283 66.0785C256.33 66.0383 257.158 64.2193 257.158 64.2193Z" fill="white"/>
<path d="M244.251 58.5497L245.476 60.3745C245.476 60.3745 245.879 57.0635 244.251 58.5497Z" fill="#CC3636"/>
<path d="M256.433 60.3745C256.284 60.8393 255.979 61.1549 255.76 61.0861C255.542 61.0172 255.49 60.5811 255.64 60.1163C255.789 59.6515 256.094 59.3359 256.313 59.4048C256.531 59.4736 256.589 59.9097 256.433 60.3745Z" fill="#020F2B"/>
<path d="M258.383 60.868C258.234 61.3213 257.946 61.6312 257.728 61.5624C257.515 61.4935 257.463 61.0689 257.607 60.6213C257.756 60.1679 258.044 59.8581 258.257 59.9269C258.47 59.9958 258.521 60.4204 258.377 60.868H258.383Z" fill="#020F2B"/>
<path d="M254.708 56.6733C254.127 56.8627 255.99 55.1355 256.686 55.1699C257.382 55.2043 257.612 56.088 257.561 56.7192C257.561 56.7192 256.105 56.22 254.708 56.6733Z" fill="#020F2B"/>
<path d="M259.505 58.6818C258.861 58.3719 258.332 58.3375 258.332 58.3375C258.602 57.8095 259.327 57.2414 259.919 57.4136" fill="#020F2B"/>
<path d="M257.158 61.2066L257.273 63.2724C257.273 63.3241 257.123 63.6741 257.077 63.6626L256.203 63.4733C256.163 63.4618 256.14 63.4159 256.157 63.37L257.02 61.1894C257.049 61.1091 257.152 61.1263 257.152 61.2066H257.158Z" fill="#CC3636"/>
<path d="M247.173 54.9748C247.173 54.9748 251.044 36.549 261.305 52.0999L262.697 51.0211C262.697 51.0211 262.565 55.7495 259.775 56.725L260.034 53.7755C259.016 54.2632 257.44 54.7625 255.099 54.9117C255.099 54.9117 256.036 53.5345 256.617 52.7311C255.933 53.3968 254.276 54.5157 251.142 54.7223L252.539 52.1228C252.315 52.5303 250.756 55.1756 247.702 55.1756C244.389 55.1756 247.184 54.9805 247.184 54.9805L247.173 54.9748Z" fill="#020F2B"/>
<path d="M274.603 94.7701L275.052 89.9901C275.092 89.531 274.459 89.3761 274.293 89.8064C273.487 91.9067 272.481 94.7299 272.452 95.8833C272.429 96.9047 272.596 98.1385 272.596 98.1385L262.26 112.065C260.833 113.712 259.873 114.189 258.625 112.1C254.823 105.753 243.072 94.3397 242.917 94.202L231.677 110.585L253.644 130.692C256.215 133.228 261.765 131.599 263.445 128.477C269.685 116.891 281.465 97.1056 282.207 95.8317C282.633 95.1029 279.757 92.3887 279.544 92.3026C279.331 92.2108 281.097 85.7437 280.39 85.8412C279.682 85.9388 278.043 89.9269 277.491 90.9426C276.938 91.9583 274.574 95.4759 274.597 94.7816L274.603 94.7701Z" fill="#FC8674"/>
<path d="M253.086 102.735L237.89 119.261C237.89 119.261 210.413 95.1545 226.196 78.829C236.072 68.6148 253.086 102.741 253.086 102.741V102.735Z" fill="#FFE3A6"/>
<path d="M250.94 100.009L235.549 115.95" stroke="white" stroke-width="0.27" stroke-miterlimit="10"/>
<path d="M266.142 242.503L264.992 247.277L254.322 247.679L252.89 242.629L266.142 242.503Z" fill="#4F6EE0"/>
<path d="M228.796 242.859L226.196 247.559L214.698 246.388L215.866 241.074L228.796 242.859Z" fill="#4F6EE0"/>
<path d="M298.853 104.112L307.141 104.491C308.499 104.554 309.626 103.458 309.655 102.041L310 85.8068C310.029 84.3894 308.953 83.1958 307.596 83.1327L299.307 82.754C297.95 82.6909 296.822 83.7869 296.794 85.2043L296.449 101.438C296.42 102.855 297.495 104.049 298.853 104.112Z" fill="#002E55"/>
<path d="M299.278 83.9361L300.469 83.9878V84.378C300.446 85.0321 300.946 85.583 301.568 85.6117L305.145 85.7724C305.772 85.8011 306.29 85.2961 306.307 84.6419V84.2517L307.567 84.3091C308.297 84.3435 308.878 84.9862 308.861 85.7494L308.516 101.983C308.499 102.746 307.895 103.337 307.164 103.303L298.876 102.924C298.145 102.89 297.564 102.247 297.582 101.484L297.927 85.2502C297.944 84.487 298.548 83.896 299.278 83.9304V83.9361Z" fill="white"/>
<path d="M308.579 101.191L308.556 102.207C308.539 102.936 307.958 103.504 307.262 103.469L298.778 103.079C298.076 103.045 297.524 102.431 297.536 101.696L297.559 100.681L308.585 101.186L308.579 101.191Z" fill="#002E55"/>
<path d="M304.26 102.545C304.26 102.603 304.214 102.632 304.156 102.626C304.099 102.626 304.053 102.591 304.058 102.534" fill="white"/>
<path d="M304.444 102.459C304.455 102.511 304.461 102.545 304.461 102.545L303.863 102.517C303.863 102.517 303.874 102.488 303.88 102.436L304.444 102.459Z" fill="white"/>
<path d="M304.438 102.419L303.892 102.396C303.897 102.35 303.909 102.287 303.909 102.207C303.915 102.081 304.001 101.977 304.11 101.954C304.11 101.909 304.139 101.874 304.168 101.874C304.196 101.874 304.219 101.914 304.225 101.954C304.346 101.983 304.438 102.098 304.432 102.23C304.432 102.299 304.432 102.368 304.438 102.419Z" fill="white"/>
<path d="M302.057 102.069C302.085 101.995 302.097 101.914 302.045 101.857C301.982 101.782 301.849 101.845 301.803 101.909C301.757 101.845 301.631 101.765 301.562 101.834C301.504 101.886 301.516 101.966 301.539 102.04C301.602 102.241 301.792 102.345 301.792 102.345C301.792 102.345 301.982 102.259 302.057 102.069Z" fill="white"/>
<path d="M299.181 102.304C299.181 102.304 299.204 102.327 299.215 102.327C299.227 102.327 299.238 102.327 299.25 102.322L299.411 102.218C299.463 102.282 299.532 102.327 299.618 102.339C299.796 102.368 299.963 102.241 299.992 102.052C300.015 101.863 299.888 101.685 299.71 101.656C299.532 101.627 299.365 101.754 299.336 101.943C299.33 102.006 299.336 102.069 299.365 102.127L299.204 102.23C299.204 102.23 299.175 102.276 299.186 102.299L299.181 102.304ZM299.428 102.144C299.393 102.086 299.382 102.023 299.388 101.954C299.405 101.799 299.543 101.696 299.693 101.719C299.842 101.742 299.946 101.886 299.928 102.041C299.911 102.195 299.773 102.299 299.624 102.276C299.543 102.264 299.474 102.213 299.428 102.144Z" fill="white"/>
<path d="M306.083 102.287L306.077 102.695L306.658 102.718L306.67 102.316" fill="white"/>
<path d="M306.79 102.431L306.382 101.983L305.962 102.396" fill="white"/>
<path d="M306.284 102.729H306.451V102.54C306.451 102.494 306.416 102.454 306.37 102.448C306.324 102.448 306.29 102.482 306.284 102.528V102.723V102.729Z" fill="white"/>
<path d="M299.48 85.9789L298.744 86.6962L299.33 87.3447" stroke="#172F4C" stroke-width="0.34" stroke-miterlimit="10"/>
<path d="M305.485 84.7452L302.402 84.6017" stroke="white" stroke-width="0.34" stroke-miterlimit="10" stroke-linecap="round"/>
<path d="M301.694 84.5272C301.694 84.4411 301.763 84.3722 301.849 84.378C301.93 84.378 301.999 84.4526 301.993 84.5386C301.993 84.6247 301.924 84.6936 301.838 84.6878C301.757 84.6878 301.688 84.6132 301.694 84.5272Z" fill="white"/>
<path opacity="0.05" d="M182.966 267.281C204.926 267.281 222.728 266.046 222.728 264.521C222.728 262.997 204.926 261.761 182.966 261.761C161.006 261.761 143.203 262.997 143.203 264.521C143.203 266.046 161.006 267.281 182.966 267.281Z" fill="url(#paint2_linear_492_9488)"/>
<path d="M164.876 120.145C165.273 120.742 166.665 127.341 166.665 127.341L193.733 126.348L194.86 114.992L164.882 120.139L164.876 120.145Z" fill="#F2915A"/>
<path d="M165.296 121.425C165.123 120.77 164.968 120.288 164.876 120.145L194.854 114.998L194.061 122.922C184.524 121.878 174.844 122.354 165.296 121.43V121.425Z" fill="#E67332"/>
<path d="M209.688 247.559L212.869 263.5C212.869 263.5 216.061 259.931 216.924 259.873C218.489 259.77 220.525 256.861 220.525 256.861L220.329 247.765L209.688 247.559Z" fill="#FFA36F"/>
<path d="M215.061 244.586L217.246 261.79L221.129 261.933L220.323 244.701L215.061 244.586Z" fill="#F2915A"/>
<path d="M222.02 260.435L224.206 264.917C224.718 265.726 224.43 266.69 223.51 267.258C222.015 268.182 215.164 268.963 213.623 268.268C212.587 267.803 211.65 267.935 211.776 267.04L212.116 262.679C212.133 262.576 213.83 259.294 217.183 259.167C219.829 259.07 221.963 260.344 222.015 260.43L222.02 260.435Z" fill="#D4007C"/>
<path d="M219.766 260.774C219.766 260.774 216.591 259.311 214.37 261.526" stroke="#28344F" stroke-width="0.54" stroke-miterlimit="10"/>
<path d="M219.973 262.547C219.973 262.547 216.798 261.084 214.577 263.299" stroke="#28344F" stroke-width="0.54" stroke-miterlimit="10"/>
<path d="M156.933 151.046C159.59 134.875 166.067 125.694 166.067 125.694L193.865 124.902C193.865 124.902 200.302 138.089 202.999 147.482C207.532 163.268 221.347 250.106 221.347 250.106C212.777 251.553 209.7 252.052 209.7 252.052C209.7 252.052 190.949 196.993 181.533 162.999C180.918 160.778 179.382 161.008 179.399 163.303C179.463 174.848 175.252 252.838 175.252 252.838L164.813 252.58C164.75 253.044 162.276 230.275 158.003 200.636C155.144 180.81 154.638 166.201 156.933 151.052V151.046Z" fill="#002E55"/>
<g style="mix-blend-mode:multiply" opacity="0.48">
<path d="M166.067 125.694L202.993 147.482C202.993 147.482 196.638 130.313 193.86 124.902L166.061 125.694H166.067Z" fill="#002E55"/>
</g>
<path d="M175.229 250.216L174.838 264.32C174.838 264.32 172.354 265.841 169.104 264.865C166.107 263.965 164.6 260.533 164.6 260.533L163.829 250.038L175.229 250.216Z" fill="#FFA36F"/>
<path d="M169.713 250.583L169.851 266.753L174.769 264.188L174.999 251.294L169.713 250.583Z" fill="#F2915A"/>
<path d="M164.542 260.126L158.612 263.098C157.111 263.85 156.174 265.353 156.306 266.943C156.34 267.35 156.432 267.637 156.616 267.637C156.616 267.637 174.815 267.534 174.838 267.276C174.999 265.663 175.195 264.952 174.901 263.483C174.861 263.27 171.347 264.544 169.915 264.062C168.954 263.741 164.537 260.126 164.537 260.126H164.542Z" fill="#D4007C"/>
<path d="M163.3 260.722L166.51 263.741" stroke="#28344F" stroke-width="0.52" stroke-miterlimit="10"/>
<path d="M161.73 261.491L164.939 264.51" stroke="#28344F" stroke-width="0.52" stroke-miterlimit="10"/>
<path d="M166.561 248.5C166.561 248.5 148.593 165.11 166.164 130.445" stroke="white" stroke-width="0.51" stroke-miterlimit="10"/>
<g style="mix-blend-mode:multiply" opacity="0.48">
<path d="M175.845 236.042C175.241 245.797 175.04 252.253 175.04 252.253L164.215 252.637C164.192 252.809 164.767 249.206 163.68 243.645C169.633 243.289 171.272 239.559 175.845 236.042Z" fill="#002E55"/>
</g>
<path d="M162.754 254.95L176.633 253.986L176.886 249.561L162.138 248.402L162.754 254.95Z" fill="#4F6EE0"/>
<path d="M196.379 129.257L163.686 130.244" stroke="white" stroke-width="0.51" stroke-miterlimit="10"/>
<path d="M215.406 246.222C215.406 246.222 209.752 159.648 192.968 129.257" stroke="white" stroke-width="0.51" stroke-miterlimit="10"/>
<g style="mix-blend-mode:multiply" opacity="0.48">
<path d="M210.781 243.071C213.864 240.971 216.711 238.452 218.868 235.468C220.122 244.575 221.215 250.164 221.215 250.164C212.645 251.61 211.805 251.386 211.805 251.386C211.805 251.386 209.545 248.907 208.256 245.034C209.429 244.38 209.683 243.823 210.781 243.071Z" fill="#002E55"/>
</g>
<path d="M135.95 76.5337C136.715 76.6083 138.136 80.3382 138.349 80.1661C138.562 79.9939 136.773 76.0402 137.365 75.9025C137.958 75.7705 139.378 79.5004 139.764 79.5348C140.143 79.575 138.17 75.5984 138.953 75.4836C139.735 75.3688 141.518 79.3283 141.921 79.1733C142.323 79.0241 139.925 75.386 140.73 75.0819C141.529 74.7778 145.09 80.7514 145.262 80.9637C145.435 81.176 147.373 77.4977 148.271 77.1534C149.133 76.8206 148.938 78.1806 148.938 78.1806C147.914 81.6465 147.149 81.3424 147.954 87.4078C148.995 91.4935 152.809 102.678 154.649 107.928C154.649 107.928 162.851 85.0953 171.036 88.7678C184.455 91.0287 161.644 119.824 156.593 124.661C151.704 129.349 146.856 127.209 145.228 121.666C141.846 110.16 140.759 96.0956 140.477 91.4304L140.27 90.168C140.27 90.168 138.395 85.6576 137.141 81.1071C136.825 79.948 135.381 76.4763 135.956 76.5337H135.95Z" fill="#F2915A"/>
<path d="M173.291 89.1867C173.291 89.1867 167.056 84.6878 163.484 89.0432C159.912 93.3986 157.128 101.128 157.128 101.128L162.69 108.852L173.291 89.1867Z" fill="#3752B8"/>
<path d="M164.082 81.5203C162.167 76.4189 170.438 72.2643 170.438 66.3252C170.438 63.0658 173.601 59.8868 177.467 59.6285C190.569 58.7563 191.144 63.7716 190.696 70.5945C190.604 72.0291 196.655 79.5864 191.472 81.2161C184.185 83.5115 171.243 80.6021 164.071 81.5145L164.082 81.5203Z" fill="#D4007C"/>
<path d="M184.133 74.9843C184.133 74.9843 187.699 72.8726 186.514 69.6362C183.535 61.5165 179.762 66.8646 179.762 66.8646L184.127 74.9843H184.133Z" fill="#E88851"/>
<path d="M170.289 76.7747C170.289 74.9958 171.732 73.5497 173.521 73.5497C175.31 73.5497 176.754 74.9901 176.754 76.7747C176.754 78.5593 175.31 79.9996 173.521 79.9996C171.732 79.9996 170.289 78.5536 170.289 76.7747Z" stroke="white" stroke-width="1.04" stroke-miterlimit="10"/>
<path d="M181.056 69.137C181.125 69.2804 182.839 71.1683 182.966 71.088C183.5 70.7494 184.864 70.1067 185.847 71.5184C186.842 72.9415 185.013 74.5597 184.225 75.1163C183.995 75.277 183.84 75.5237 183.782 75.8106C183.598 76.6886 183.966 78.0601 183.8 80.9292C183.656 83.4311 185.335 89.7949 185.335 89.7949C185.335 89.7949 165.894 106.832 173.308 88.7793L175.189 79.2709C175.189 79.2709 169.363 80.034 169.777 72.3275C169.777 65.8432 173.13 64.7414 174.16 64.334C175.028 63.9954 177.576 62.1362 181.056 69.137Z" fill="#FFA36F"/>
<path d="M174.855 79.2479L177.254 79.0184C177.254 79.0184 175.885 81.8244 174.855 79.2479Z" fill="#F26534"/>
<path d="M185.312 72.6833C185.312 72.6833 184.38 70.5543 183.196 73.4063L185.312 72.6833Z" fill="#F26534"/>
<path d="M172.221 64.4832C172.221 64.4832 175.5 70.0321 180.757 67.6507C180.757 67.6507 177.582 54.8772 172.221 64.4832Z" fill="#D4007C"/>
<path d="M176.478 72.4767C175.643 72.8554 175.27 73.8366 175.649 74.6687C176.029 75.5008 177.012 75.8737 177.846 75.495C178.68 75.1163 179.054 74.135 178.675 73.303C178.295 72.4709 177.312 72.0979 176.478 72.4767Z" fill="#FD8054"/>
<path d="M170.053 75.518C171.013 75.2081 171.209 74.0433 170.875 73.2973C170.662 72.8325 170.22 72.5111 169.765 72.3849C169.765 72.3849 169.621 74.3933 170.053 75.518Z" fill="#FD8054"/>
<path d="M171.692 74.4794L174.539 74.5195C174.539 74.5195 173.935 75.6902 172.865 75.6385C171.795 75.5869 171.692 74.4794 171.692 74.4794Z" fill="white"/>
<path d="M172.399 72.2471L172.727 73.3776L172.02 73.4005C171.887 73.4005 171.801 73.2686 171.859 73.1538L172.394 72.2471H172.399Z" fill="#F26534"/>
<path d="M185.059 79.9308C186.844 79.9308 188.292 78.4869 188.292 76.7058C188.292 74.9248 186.844 73.4809 185.059 73.4809C183.274 73.4809 181.827 74.9248 181.827 76.7058C181.827 78.4869 183.274 79.9308 185.059 79.9308Z" stroke="white" stroke-width="1.04" stroke-miterlimit="10"/>
<path d="M163.289 99.9403C167.925 91.723 170.933 90.1106 172.722 88.9457L172.9 89.1867C174.844 91.8091 178.111 91.7173 181.292 90.9656C183.541 90.4319 185.18 88.8653 185.226 89.2441C188.28 89.4392 193.923 92.7961 193.923 92.7961C197.702 112.886 200.526 115.497 200.02 120.346C178.577 121.734 162.098 121.734 162.098 121.734C161.045 112.456 158.014 109.305 163.289 99.946V99.9403Z" fill="#4F6EE0"/>
<path d="M179.417 116.931C182.275 113.735 184.823 110.206 186.618 106.304C188.873 101.392 189.091 96.4055 190.253 91.2237C190.276 91.1147 190.293 91.0057 190.311 90.9024C192.289 91.8263 193.923 92.7961 193.923 92.7961C197.966 113.942 200.526 115.497 200.02 120.346C190.236 120.977 181.493 121.321 174.867 121.511C176.46 120.065 177.984 118.544 179.422 116.937L179.417 116.931Z" fill="#3752B8"/>
<path d="M148.483 90.6442L141.104 94.4315C139.896 95.0513 138.418 94.5233 137.797 93.2494L130.71 78.6282C130.095 77.3543 130.572 75.8164 131.78 75.1967L139.16 71.4094C140.368 70.7896 141.846 71.3175 142.467 72.5915L149.553 87.2127C150.169 88.4866 149.691 90.0245 148.483 90.6442Z" fill="#002E55"/>
<path opacity="0.91" d="M139.677 72.4767L138.619 73.0218L138.786 73.3719C139.073 73.9572 138.849 74.6687 138.291 74.9556L135.105 76.5911C134.547 76.878 133.862 76.6312 133.58 76.0459L133.414 75.6959L132.298 76.2697C131.648 76.6025 131.389 77.4289 131.723 78.1175L138.809 92.7387C139.142 93.4216 139.942 93.7085 140.586 93.3757L147.966 89.5884C148.616 89.2555 148.875 88.4292 148.541 87.7406L141.455 73.1194C141.121 72.4365 140.322 72.1496 139.677 72.4824V72.4767Z" fill="white"/>
<path d="M138.418 92.0271L138.861 92.9453C139.177 93.6052 139.942 93.8749 140.569 93.5593L148.127 89.6802C148.748 89.3588 148.995 88.5669 148.679 87.907L148.236 86.9889L138.423 92.0271H138.418Z" fill="#002E55"/>
<path d="M142.916 91.4648C142.939 91.5164 142.996 91.5222 143.042 91.4935C143.094 91.4705 143.123 91.4246 143.094 91.3672" fill="white"/>
<path d="M142.709 91.4648C142.72 91.5164 142.726 91.5508 142.726 91.5508L143.261 91.2754C143.261 91.2754 143.244 91.2524 143.209 91.2065L142.709 91.4648Z" fill="white"/>
<path d="M142.697 91.4246L143.186 91.1721C143.157 91.1319 143.128 91.0746 143.088 91.0114C143.031 90.8967 142.91 90.8393 142.795 90.8622C142.772 90.8221 142.737 90.7991 142.709 90.8163C142.68 90.8278 142.674 90.8737 142.691 90.9139C142.594 90.9885 142.559 91.1319 142.622 91.2524C142.657 91.3156 142.68 91.3787 142.697 91.4303V91.4246Z" fill="white"/>
<path d="M144.716 90.1163C144.658 90.0589 144.612 89.99 144.641 89.9212C144.67 89.8294 144.814 89.8294 144.883 89.8638C144.894 89.7835 144.98 89.663 145.067 89.6974C145.136 89.7203 145.165 89.7949 145.176 89.8753C145.199 90.0819 145.073 90.2597 145.073 90.2597C145.073 90.2597 144.865 90.2597 144.716 90.1163Z" fill="white"/>
<path d="M147.391 89.0776L147.201 89.0489C147.201 88.9858 147.184 88.9227 147.149 88.871C147.051 88.7104 146.844 88.6644 146.689 88.762C146.539 88.8653 146.493 89.0776 146.597 89.2383C146.695 89.399 146.902 89.4449 147.057 89.3473C147.126 89.3014 147.172 89.2268 147.195 89.1522L147.385 89.1809C147.385 89.1809 147.408 89.1809 147.419 89.1752C147.431 89.1694 147.437 89.1522 147.442 89.1407C147.442 89.112 147.425 89.0891 147.402 89.0833L147.391 89.0776ZM147.017 89.2957C146.89 89.3817 146.723 89.3416 146.643 89.2096C146.562 89.0776 146.597 88.8997 146.718 88.8194C146.844 88.7333 147.011 88.7735 147.092 88.9055C147.126 88.9628 147.143 89.0317 147.132 89.0948C147.12 89.1752 147.08 89.2498 147.011 89.2957H147.017Z" fill="white"/>
<path d="M141.15 91.987L141.328 92.3543L140.805 92.6182L140.626 92.2567" fill="white"/>
<path d="M140.569 92.4116L140.747 91.832L141.305 92.0329" fill="white"/>
<path d="M141.156 92.469L141.006 92.5436L140.92 92.3657C140.897 92.3255 140.92 92.2739 140.954 92.2509C140.995 92.228 141.046 92.2509 141.064 92.2911L141.15 92.469H141.156Z" fill="white"/>
<path d="M140.345 74.4163L141.317 74.7663L141.058 75.5984" stroke="#172F4C" stroke-width="0.34" stroke-miterlimit="10"/>
<path d="M134.374 75.7877L137.118 74.376" stroke="white" stroke-width="0.34" stroke-miterlimit="10" stroke-linecap="round"/>
<path d="M137.733 74.0145C137.693 73.9342 137.607 73.9055 137.532 73.9399C137.457 73.9801 137.428 74.0719 137.469 74.1465C137.509 74.2268 137.595 74.2555 137.67 74.2211C137.745 74.1809 137.774 74.0891 137.733 74.0145Z" fill="white"/>
<path d="M146.603 100.933C146.603 100.933 170.197 131.231 175.994 128.196C175.994 128.196 203.12 99.8542 192.197 89.2785C185.709 83.0008 182.108 96.9851 173.348 108.123C173.078 108.462 152.51 96.285 152.51 96.285C152.51 96.285 145.337 83.6722 144.647 84.246C143.64 85.078 146.332 90.6385 146.332 90.6385C146.332 90.6385 146.033 91.1951 145.337 91.4017C144.641 91.6083 144.216 91.9985 143.876 92.842C143.543 93.6913 142.594 94.0872 142.381 94.575C142.168 95.0685 144.923 99.3435 146.603 100.933Z" fill="#FFA36F"/>
<path d="M189.08 87.2184C193.71 87.2758 199.013 93.8462 197.172 102.322C195.717 109.03 194.527 111.537 194.527 111.537C194.527 111.537 174.666 103.894 175.465 101.794C177.582 96.2448 183.029 87.1438 189.08 87.2184Z" fill="#4F6EE0"/>
<path d="M209.452 254.37L222.538 251.22L222.141 244.374L208.061 248.993L209.452 254.37Z" fill="#4F6EE0"/>
<path opacity="0.05" d="M118.931 264.785C139.906 264.785 156.91 263.809 156.91 262.605C156.91 261.4 139.906 260.424 118.931 260.424C97.9553 260.424 80.9514 261.4 80.9514 262.605C80.9514 263.809 97.9553 264.785 118.931 264.785Z" fill="url(#paint3_linear_492_9488)"/>
<path d="M92.6161 253.882L93.9908 245.51L102.291 245.82L102.492 253.882L98.5923 260.889L91.5808 255.282L92.6161 253.882Z" fill="#F59252"/>
<path d="M98.9488 246.118L98.0286 257.934C98.0286 257.934 100.185 256.665 102.705 254.33L102.584 246.273L98.9488 246.124V246.118Z" fill="#AB5218"/>
<path d="M92.1157 253.785C92.1157 253.785 94.5544 253.733 97.3901 255.965C99.0753 257.291 101.629 254.554 102.411 253.848C102.572 253.704 102.785 253.831 102.814 254.089L103.792 263.339H79.1051C78.8175 263.339 78.5874 263.023 78.5874 262.639L78.6679 262.065C78.8405 260.797 79.6457 259.695 80.8076 259.144L92.1214 253.785H92.1157Z" fill="#D4007C"/>
<path d="M90.7295 254.267L94.704 256.654" stroke="white" stroke-width="0.62" stroke-miterlimit="10"/>
<path d="M88.9983 255.185L92.9728 257.572" stroke="white" stroke-width="0.62" stroke-miterlimit="10"/>
<path d="M134.846 253.199L131.941 244.764L140.368 243.41L142.714 253.882L138.815 260.889L131.797 255.282L134.846 253.199Z" fill="#F59252"/>
<path d="M137.319 244.162L140.373 257.566C140.373 257.566 140.195 256.12 142.714 253.779L140.954 244.317L137.319 244.167V244.162Z" fill="#AB5218"/>
<path d="M132.338 253.785C132.338 253.785 134.777 253.733 137.612 255.965C139.298 257.291 141.852 254.554 142.634 253.848C142.795 253.704 143.008 253.831 143.036 254.089L144.014 263.339H119.327C119.04 263.339 118.81 263.023 118.81 262.639L118.856 262.283C119.046 260.877 119.937 259.655 121.226 259.047L132.338 253.779V253.785Z" fill="#D4007C"/>
<path d="M130.394 254.45L134.369 256.838" stroke="white" stroke-width="0.62" stroke-miterlimit="10"/>
<path d="M128.663 255.369L132.637 257.756" stroke="white" stroke-width="0.62" stroke-miterlimit="10"/>
<path d="M94.1577 141.893C94.1577 141.893 90.9827 181.241 90.6836 192.109C90.3845 202.978 92.4897 246.778 92.4897 246.778L103.159 247.18C103.159 247.18 114.927 170.384 127.754 144.166L94.1577 141.893Z" fill="#3752B8"/>
<path d="M110.177 143.97C110.177 143.97 101.14 189.424 101.14 196.402C101.14 203.379 99.5242 246.422 99.5242 246.422" stroke="white" stroke-width="0.62" stroke-miterlimit="10"/>
<path d="M94.1345 141.893C94.1345 141.893 101.474 174.693 108.934 197.893C114.962 216.646 131.216 246.422 131.216 246.422L141.828 245.969L130.25 198.45C129.566 195.65 129.134 192.792 128.956 189.906C128.294 179.009 130.457 156.991 131.36 142.886L94.1345 141.893Z" fill="#4F6EE0"/>
<path d="M119.851 142.501C119.851 142.501 116.383 185.011 119.5 191.627C122.618 198.238 136.445 246.273 136.445 246.273" stroke="white" stroke-width="0.62" stroke-miterlimit="10"/>
<path d="M107.41 142.134L118.471 157.163" stroke="#020F2B" stroke-width="0.62" stroke-miterlimit="10"/>
<path d="M61.8669 104.101C61.8669 104.101 84.391 123.955 88.9637 123.221C93.5306 122.486 116.682 82.2203 106.604 78.06C106.604 78.06 104.286 75.4376 101.865 77.5895C99.4435 79.7414 92.2192 84.9173 83.8158 106.895C83.8158 106.895 66.2785 96.8301 64.9729 95.7226C64.9729 95.7226 59.917 88.8079 59.8538 90.2081C59.7848 91.6025 62.0107 94.6782 61.401 94.8159C60.7971 94.9537 53.8546 89.858 53.245 90.3458C52.6353 90.8335 57.6278 93.697 57.3575 93.8347C57.0872 93.9724 52.1003 91.3902 51.83 91.9468C51.5597 92.5034 56.5465 95.0914 56.3452 95.298C56.1439 95.5045 51.3584 92.9912 51.2261 93.4101C51.0938 93.829 54.867 95.9923 55.2006 96.6235C55.2006 96.6235 51.088 94.9479 50.8867 95.648C50.6854 96.3481 61.8727 104.095 61.8727 104.095L61.8669 104.101Z" fill="#F59252"/>
<path d="M60.2507 94.2536L62.1373 97.6048C62.1373 97.6048 61.3608 94.9881 61.5621 94.7069L60.2507 94.2536Z" fill="#AB5218"/>
<path d="M84.5579 104.875C84.5579 104.875 98.598 64.2939 111.885 75.3057C119.31 81.4572 96.1535 123.674 90.7928 127.725L73.2153 115.732L78.0181 102.465L84.5579 104.875Z" fill="#002E55"/>
<path d="M78.0181 102.465L73.2153 115.726L78.5933 119.812L82.0789 104.181L78.0181 102.465Z" fill="#005BA8"/>
<path opacity="0.7" d="M111.885 75.3057C108.232 72.2758 104.839 74.0088 101.255 76.591C99.7657 79.3282 98.0516 81.6752 96.4124 84.091C96.5734 84.6476 96.5791 85.2846 96.3606 85.9962C93.87 94.0642 92.5471 103.102 88.6474 110.614C85.4609 116.754 79.7494 117.207 74.1241 115.635C74.1126 115.669 74.0954 115.709 74.0896 115.738L90.7928 127.719C96.1535 123.668 119.31 81.4571 111.885 75.2999V75.3057Z" fill="#020F2B"/>
<path d="M140.46 89.4851C140.103 80.2234 124.199 72.5054 124.199 72.5054L118.16 70.0838L119.212 69.114L112.241 75.5754C110.688 77.0157 109.095 77.4403 108.422 75.3917L108.52 74.3875V72.5857L104.994 73.653C103.844 73.8022 98.5174 79.8619 96.7804 82.6679C94.9053 85.7035 93.8239 89.2154 93.6571 92.8477L92.3342 146.059L130.486 148.544C130.486 148.544 141.006 103.745 140.46 89.4851Z" fill="#FFE3A6"/>
<path d="M89.0212 140.895L133.701 144.246" stroke="white" stroke-width="0.27" stroke-miterlimit="10"/>
<path d="M118.459 70.1871C118.459 70.1871 117.959 79.1848 112.161 99.7796C108.434 113.035 105.535 135.621 104.217 147.115C103.769 151.023 106.685 154.512 110.619 154.776L134.829 156.4C134.829 156.4 136.318 134.864 135.703 130.497C135.082 126.13 151.888 83.5 132.792 76.2353L118.453 70.1871H118.459Z" fill="#002E55"/>
<path d="M105.753 81.4227L105.638 82.5876L97.0624 146.587C96.5045 150.753 93.0649 153.944 88.8604 154.19L87.1636 154.288C87.1636 154.288 88.9179 132.092 90.0682 127.484C94.1175 97.6622 92.2999 90.2712 93.6631 87.4479C95.7683 83.0811 100.749 73.9571 106.927 72.9759L105.748 81.4227H105.753Z" fill="#002E55"/>
<path d="M104.304 123.089C104.212 123.84 104.327 124.472 104.563 124.506C104.799 124.54 105.063 123.961 105.161 123.209C105.253 122.457 105.138 121.826 104.902 121.792C104.666 121.757 104.402 122.337 104.304 123.089Z" fill="white"/>
<path d="M102.259 67.4243C104.945 66.3146 106.22 63.2432 105.107 60.5642C103.995 57.8851 100.917 56.6129 98.2312 57.7226C95.5458 58.8323 94.2706 61.9037 95.3829 64.5828C96.4952 67.2618 99.5739 68.5341 102.259 67.4243Z" fill="#FDC500"/>
<path d="M96.1362 62.5723C96.1362 60.3057 97.9768 58.4694 100.249 58.4694C102.521 58.4694 104.361 60.3057 104.361 62.5723C104.361 64.839 102.521 66.6752 100.249 66.6752C97.9768 66.6752 96.1362 64.839 96.1362 62.5723Z" stroke="white" stroke-width="0.51" stroke-miterlimit="10"/>
<path d="M94.8537 42.3562C92.8808 43.8023 93.5653 49.7299 95.4807 51.813C96.0156 52.4901 96.677 53.0065 97.465 53.2074C97.9079 53.5402 98.4774 53.8788 98.995 53.9189C100.163 54.005 101.186 52.6967 102.032 51.3998C102.866 50.1259 105.5 50.9006 105.914 51.0325L109.906 60.0704L111.189 59.0605L111.315 59.1867L111.442 59.3187L113.57 57.0176V56.943C113.352 49.7988 111.637 46.746 109.676 45.3114C111.218 41.6848 99.4667 43.1022 94.8537 42.3562ZM112.276 57.8841L111.816 58.3833C112.08 57.8325 112.448 57.4824 112.719 57.2873L112.282 57.8841H112.276Z" fill="#020F2B"/>
<path d="M113.754 60.6099L117.033 70.1297L114.818 75.1565C113.789 77.01 111.241 82.645 108.98 78.4388L108.773 76.505L106.386 69.3034L111.499 59.9901C111.499 59.9901 112.909 60.4549 113.15 60.7131C113.392 60.9714 113.76 60.6099 113.76 60.6099H113.754Z" fill="#F59252"/>
<path d="M111.493 59.9901L106.38 69.3034C106.38 69.3034 106.656 70.9962 108.134 71.2831C110.199 71.6906 111.459 68.7697 111.764 64.093" fill="#AB5218"/>
<path d="M110.303 58.2342C110.458 58.435 110.751 58.4121 110.867 58.1883C111.24 57.4308 113.023 55.7897 114.168 57.9415C115.727 60.8623 112.431 61.3444 112.322 61.8436C112.092 62.8535 110.826 65.1603 108.773 67.0482C107.525 68.2017 105.632 70.9618 103.504 69.8887C101.376 68.8157 100.6 67.1286 96.4065 52.4385C96.4065 52.4385 96.6826 53.1443 97.8617 53.1787C99.0408 53.2132 98.6612 51.5433 99.7483 50.8031C100.634 50.2005 104.839 48.4962 107.151 51.6408C108.215 53.0869 109.371 57.0464 110.297 58.2342H110.303Z" fill="#F59252"/>
<path d="M100.323 63.72C100.323 63.72 101.457 63.9036 103.746 62.9052C103.746 62.9052 103.24 65.6194 102.199 65.5792C101.152 65.539 100.323 63.72 100.323 63.72Z" fill="white"/>
<path d="M113.236 58.0448L112.011 59.8696C112.011 59.8696 111.609 56.5586 113.236 58.0448Z" fill="#AB5218"/>
<path d="M101.048 59.8696C101.198 60.3344 101.503 60.65 101.721 60.5811C101.94 60.5123 101.992 60.0762 101.842 59.6114C101.693 59.1466 101.388 58.8309 101.169 58.8998C100.951 58.9687 100.899 59.4048 101.048 59.8696Z" fill="#020F2B"/>
<path d="M99.1043 60.3631C99.2538 60.8164 99.5414 61.1263 99.76 61.0574C99.9728 60.9886 100.025 60.5639 99.8808 60.1163C99.7312 59.663 99.4437 59.3531 99.2251 59.422C99.0123 59.4908 98.9605 59.9155 99.1043 60.3631Z" fill="#020F2B"/>
<path d="M102.78 56.1684C103.36 56.3577 101.497 54.6305 100.801 54.6649C100.105 54.6994 99.8749 55.5831 99.9267 56.2143C99.9267 56.2143 101.382 55.7151 102.78 56.1684Z" fill="#020F2B"/>
<path d="M97.9769 58.1767C98.6211 57.8669 99.1502 57.8324 99.1502 57.8324C98.8799 57.3045 98.1552 56.7364 97.5627 56.9086" fill="#020F2B"/>
<path d="M100.324 60.7016L99.6333 63.2896C99.6333 63.3413 99.6793 63.3814 99.7253 63.3699L101.273 62.9625C101.313 62.9511 101.336 62.9051 101.319 62.8592L100.456 60.6787C100.427 60.5983 100.324 60.6156 100.324 60.6959V60.7016Z" fill="#AB5218"/>
<path d="M115.399 61.6654C117.37 59.5346 117.237 56.2128 115.101 54.2459C112.966 52.279 109.636 52.4118 107.664 54.5426C105.693 56.6734 105.826 59.9952 107.962 61.9621C110.098 63.929 113.427 63.7962 115.399 61.6654Z" fill="#FDC500"/>
<path d="M107.416 58.1022C107.416 55.8355 109.256 53.9993 111.528 53.9993C113.8 53.9993 115.641 55.8355 115.641 58.1022C115.641 60.3688 113.8 62.2051 111.528 62.2051C109.256 62.2051 107.416 60.3688 107.416 58.1022Z" stroke="white" stroke-width="0.51" stroke-miterlimit="10"/>
<path d="M109.578 53.1443C109.578 53.1443 103.849 42.3677 102.854 41.966C101.393 41.3807 100.709 42.5513 100.709 42.5513" stroke="#FDC500" stroke-width="1.02" stroke-miterlimit="10"/>
<path d="M112.259 63.1347C115.221 70.7494 114.484 79.5463 110.113 86.4725C108.169 89.5539 105.586 92.228 102.567 94.2708C101.894 94.7242 101.204 95.1488 100.496 95.539C99.9382 95.8431 99.1732 96.0555 98.7015 96.4858C98.2299 96.9162 98.0861 97.6679 97.9653 98.2475C97.5109 100.485 97.5224 102.838 97.4764 105.111C97.4534 106.258 97.4419 107.406 97.4016 108.554C97.3786 109.282 97.3844 110.057 97.2061 110.774C96.838 112.215 95.9292 113.592 95.0549 114.774C94.0081 116.185 92.7427 117.523 91.2242 118.429C89.7057 119.336 87.9169 119.674 86.4674 118.498C85.5414 117.746 84.9432 116.633 84.5061 115.549C83.8216 113.856 83.465 112.042 83.1947 110.241C83.1544 109.965 82.7288 110.08 82.769 110.355C83.2694 113.735 84.6844 120.788 89.6424 119.577C91.2817 119.175 92.6967 118.033 93.847 116.857C95.0837 115.594 96.1592 114.125 96.953 112.542C97.6547 111.142 97.7985 109.856 97.8445 108.301C97.925 105.765 97.8963 103.223 98.0918 100.686C98.1724 99.6476 98.2587 98.5688 98.5865 97.5704C98.9546 96.4514 100.139 96.2391 101.1 95.6939C104.241 93.9036 106.99 91.4648 109.17 88.5956C114.024 82.2031 115.658 73.7621 113.65 66.0039C113.386 64.9882 113.058 63.9954 112.678 63.0199C112.575 62.7617 112.149 62.8707 112.253 63.1347H112.259Z" fill="#FDC500"/>
<path d="M98.8512 67.8917C99.668 70.3305 100.26 72.6373 100.076 75.2311C99.9268 77.4059 99.9326 79.3799 100.548 81.4858C101.681 85.3649 104.2 89.3416 103.326 93.5191C103.269 93.7945 103.694 93.9093 103.752 93.6339C104.615 89.508 102.302 85.6232 101.106 81.8072C100.784 80.7858 100.525 79.7356 100.421 78.6626C100.306 77.4231 100.456 76.1894 100.531 74.9556C100.686 72.4308 100.065 70.1469 99.2711 67.7712C99.1848 67.5073 98.7592 67.6163 98.8455 67.886L98.8512 67.8917Z" fill="#FDC500"/>
<path d="M92.8521 113.649L87.7445 96.262C87.5144 95.4702 86.9392 94.8217 86.18 94.4946L75.9475 90.0761C74.6764 89.5252 73.7101 90.8279 74.1587 92.1362L78.7256 106.419C79.0247 107.366 79.6919 108.146 80.5662 108.565L91.5407 114.074C91.8858 114.24 92.9614 114.022 92.8463 113.649H92.8521Z" fill="#FDC500"/>
<path d="M91.8742 114.275L86.571 96.2219C86.387 95.6194 85.9499 95.1201 85.3689 94.8619L75.1077 90.5295C74.337 90.2024 73.733 91.0631 73.9631 91.8665L78.7371 106.694C79.0937 107.699 79.3525 108.169 80.3016 108.651C83.6204 110.338 91.9662 114.573 91.8742 114.28V114.275Z" fill="#4F6EE0"/>
<path d="M76.488 93.6511C76.6031 93.8921 76.557 94.1446 76.396 94.2249C76.2349 94.3053 76.0049 94.1733 75.8898 93.9323C75.7748 93.6913 75.8208 93.4388 75.9819 93.3585C76.1487 93.2781 76.373 93.4101 76.488 93.6511Z" fill="#231F61"/>
<path d="M76.6146 93.5937C76.7757 93.9322 76.7181 94.2938 76.4823 94.4028C76.2465 94.5118 75.9302 94.3282 75.7691 93.9896C75.6081 93.6511 75.6656 93.2896 75.9014 93.1805C76.1372 93.0715 76.4536 93.2551 76.6146 93.5937Z" stroke="#231F61" stroke-width="0.09" stroke-miterlimit="10"/>
<path d="M87.2957 97.0712L87.3245 97.0482C87.4683 96.9277 87.6926 96.9966 87.7444 97.1744L88.3771 99.378C88.4058 99.4755 88.3771 99.5845 88.2908 99.6477C88.147 99.7682 87.9284 99.6993 87.8767 99.5214L87.2152 97.3409C87.1865 97.2433 87.2152 97.1343 87.2957 97.0654V97.0712Z" stroke="#37578A" stroke-width="0.17" stroke-miterlimit="10"/>
<path d="M88.2159 100.21L88.2447 100.187C88.3885 100.067 88.6128 100.135 88.6646 100.313L89.2972 102.517C89.326 102.614 89.2972 102.723 89.211 102.787C89.0672 102.907 88.8486 102.838 88.7968 102.66L88.1354 100.48C88.1066 100.382 88.1354 100.273 88.2159 100.204V100.21Z" stroke="#37578A" stroke-width="0.17" stroke-miterlimit="10"/>
<path d="M89.6597 102.58L88.7625 104.674L91.1149 106.901L89.6597 102.58Z" fill="#020E2B"/>
<path d="M91.0114 106.155L89.4354 101.656C89.4354 101.656 92.7025 104.841 93.2661 106.585C93.5652 107.503 93.7436 108.663 93.7436 108.663L106.921 118.464C108.664 119.571 109.67 119.737 110.251 117.517C112.017 110.751 119.678 97.2605 119.782 97.0883L134.443 108.875L119.793 132.987C118.125 135.971 112.627 136 110.251 133.63C101.445 124.833 83.9425 108.617 82.9244 107.664C82.3377 107.119 80.7445 105.294 80.8768 104.984C81.1816 104.284 84.4256 107.894 84.3451 107.658C84.2646 107.423 80.1635 103.693 80.3936 103.119C80.7387 102.264 85.2424 106.505 85.3229 106.574C86.5193 107.601 80.8653 102.689 80.963 102.04C81.0666 101.392 83.7929 103.446 83.8907 103.521C83.8907 103.521 86.1282 105.426 86.295 105.283C86.4618 105.139 82.6483 99.7452 83.3213 99.6361C83.9942 99.5271 86.5653 102.695 87.336 103.464C88.1125 104.233 91.2185 106.775 91.0114 106.149V106.155Z" fill="#F59252"/>
<path d="M140.776 93.7659L133.563 133.217C132.16 140.9 123.797 144.774 117.332 140.74L106.944 134.261L140.77 93.7659H140.776Z" fill="#020F2B"/>
<path d="M123.659 85.1469C123.659 85.1469 127.967 72.7866 135.887 78.1117C144.21 83.7066 143.968 105.839 126.621 132.299C122.687 138.301 110.556 139.391 105.627 134.233L100.462 131.168L105.115 116.409L108.14 118.217L123.659 85.1412V85.1469Z" fill="#002E55"/>
<path d="M109.659 118.343C109.659 118.745 107.381 135.306 107.381 135.306L100.462 131.174L105.115 116.415L109.659 118.337V118.343Z" fill="#005BA8"/>
<path d="M143.468 257.934C143.468 257.934 137.44 259.139 136.842 264.745" stroke="white" stroke-width="0.62" stroke-miterlimit="10"/>
<path d="M122.98 258.134C122.98 258.134 127.599 258.536 127.196 264.544" stroke="white" stroke-width="0.62" stroke-miterlimit="10"/>
<path d="M103.7 257.934C103.7 257.934 97.6719 259.139 97.0737 264.745" stroke="white" stroke-width="0.62" stroke-miterlimit="10"/>
<path d="M82.8152 258.134C82.8152 258.134 87.4339 258.536 87.0313 264.544" stroke="white" stroke-width="0.62" stroke-miterlimit="10"/>
<path opacity="0.1" d="M36.306 276.463C56.1663 276.463 72.2663 275.538 72.2663 274.397C72.2663 273.256 56.1663 272.331 36.306 272.331C16.4457 272.331 0.345703 273.256 0.345703 274.397C0.345703 275.538 16.4457 276.463 36.306 276.463Z" fill="url(#paint4_linear_492_9488)"/>
<path d="M63.3567 93.5249C66.1061 88.0735 63.0922 86.0765 62.1546 84.9461C60.0264 82.0367 55.7759 79.8045 52.8309 80.057C52.8309 80.057 48.937 78.7659 45.7102 81.9794C45.1983 82.4901 36.8007 88.3432 48.5516 100.003" fill="#002E55"/>
<path d="M47.1999 82.1056C48.5056 81.7785 48.6782 80.4988 48.2353 79.4717C47.7751 78.4101 47.3783 76.6599 45.8023 77.2108C45.3191 77.3829 44.928 77.7616 44.6692 78.2092C44.0652 79.2594 43.5475 78.3642 42.7768 77.974C41.8163 77.4862 40.6716 78.1576 39.9239 78.9265C39.5328 79.3282 39.1704 79.7815 39.0266 80.3267C38.7448 81.394 39.3832 82.4728 39.9929 83.3967C40.5048 84.1771 41.0973 85.0149 42.0061 85.2616C42.7078 85.451 43.444 85.2444 44.14 85.0321C44.7554 84.8485 45.3824 84.6591 45.9173 84.3033C46.4522 83.9476 46.8951 83.3967 46.9584 82.7597" fill="#002E55"/>
<path d="M55.1833 80.6079C55.7413 79.575 55.8506 78.1748 56.8686 77.578C57.5301 77.1936 58.3583 77.3026 59.1118 77.4231C60.0091 77.5665 60.9984 77.7559 61.5621 78.4675C61.8785 78.8691 62.0165 79.3799 62.1258 79.8791C62.2696 80.539 62.3789 81.2563 62.097 81.8703C61.7404 82.6564 60.8604 83.0466 60.0609 83.3737C59.733 83.5057 59.3707 83.6377 59.0313 83.5344C58.5251 83.3737 58.3181 82.7655 57.8925 82.4556" fill="#002E55"/>
<path d="M49.0231 92.4977C48.9599 92.6813 48.7586 92.7731 48.5803 92.7043C47.8268 92.4174 46.3486 91.723 45.3938 93.6224C44.9106 94.5865 45.3017 95.7915 46.0897 96.285C46.7052 96.6695 47.66 97.0539 48.1604 96.9679C48.5688 97.9778 47.8958 105.145 47.3264 105.725C43.835 109.271 42.9895 109.213 42.9895 109.213C42.9895 109.213 55.3214 128.523 55.655 112.306C55.655 112.306 57.2655 102.637 57.346 102.649C58.5079 102.855 62.885 102.878 63.5004 94.4086C64.0699 86.5643 58.6862 85.1182 57.277 84.86C56.0864 84.6419 52.1291 83.4312 49.0231 92.492V92.4977Z" fill="#F07F58"/>
<path d="M57.3231 102.672L53.9871 101.937L54.1941 102.35C54.8153 103.59 56.4488 103.756 57.3231 102.672Z" fill="#C2542D"/>
<path d="M61.3378 84.7681C62.1948 86.3749 60.36 90.7991 56.6098 88.2857C55.2696 87.3848 53.6246 91.1033 52.1177 91.723C49.4603 92.8075 48.5113 92.2165 48.0569 91.109C48.0569 91.109 55.8448 74.4851 61.3378 84.7681Z" fill="#002E55"/>
<path d="M60.9639 85.0206C60.9639 85.0206 61.5678 88.1882 63.7938 90.7417C63.7938 90.7417 65.8471 86.5528 60.9639 85.0206Z" fill="#002E55"/>
<path d="M48.4825 94.816C47.4932 91.5624 46.1128 93.9265 46.1128 93.9265L48.4825 94.816Z" fill="#C2542D"/>
<path d="M56.2244 94.7184C57.2137 95.0627 57.7371 96.1415 57.3862 97.1285C57.0411 98.1155 55.9598 98.6377 54.9705 98.2877C53.9812 97.9434 53.4578 96.8646 53.8086 95.8776C54.1537 94.8906 55.2351 94.3684 56.2244 94.7127V94.7184Z" fill="#EE6A4F"/>
<path d="M62.4479 99.1656C61.6886 98.7123 61.3263 97.777 61.6311 96.9162C61.8669 96.2506 62.6837 95.912 63.3337 95.7972C63.3337 95.7972 63.2416 97.9663 62.4479 99.1714V99.1656Z" fill="#EE6A4F"/>
<path d="M60.665 94.1733L60.9756 97.0597L59.6182 96.7498L60.665 94.1733Z" fill="#C2542D"/>
<path d="M58.5884 97.0826L61.4815 97.6966C61.4815 97.6966 60.4347 99.1713 59.5777 98.6778C58.7207 98.1843 58.5941 97.0826 58.5941 97.0826H58.5884Z" fill="white"/>
<path d="M48.0628 80.8604C48.3676 80.4816 48.3849 79.9537 48.3619 79.466C48.3101 78.4618 48.0628 77.36 47.2518 76.7632C46.7686 76.4074 46.1244 76.2812 45.5377 76.4246C44.9568 76.5738 44.4449 76.9927 44.1918 77.5379C44.048 77.842 43.9847 78.1863 43.7892 78.456C43.4211 78.9725 42.7251 79.0987 42.0981 79.1848" stroke="#002E55" stroke-width="0.48" stroke-miterlimit="10"/>
<path d="M60.9007 78.1346C61.7577 78.5822 62.6953 79.1331 62.9369 80.0685C62.9944 80.2865 63.0059 80.5103 63.0174 80.7398C63.0289 81.1128 63.0174 81.4858 62.9886 81.8588C62.9599 82.2031 62.9139 82.5589 62.7355 82.863C62.448 83.3623 61.8498 83.6262 61.2688 83.6606C60.6879 83.6951 60.1185 83.5344 59.5605 83.368" stroke="#002E55" stroke-width="0.48" stroke-miterlimit="10"/>
<path d="M61.844 86.4495C61.959 87.4192 61.5161 88.4349 60.7224 89.0088C59.9286 89.5826 58.8243 89.6916 57.9327 89.2785C57.116 88.8997 56.5293 88.148 55.7586 87.6832C54.8958 87.1668 53.8087 87.0405 52.8481 87.3504" stroke="#002E55" stroke-width="0.48" stroke-miterlimit="10"/>
<path d="M51.0652 89.9269C50.3635 90.2598 49.656 90.6213 49.1671 91.2238C48.6782 91.8206 48.4711 92.7158 48.868 93.3757C49.1441 93.8347 49.6445 94.0987 50.0759 94.4143C50.5073 94.7357 50.9099 95.2119 50.8293 95.7399C50.7258 96.4285 49.9263 96.7269 49.3914 97.1744C48.6954 97.7483 48.3791 98.7353 48.6149 99.6018C48.7472 100.09 49.0635 100.554 49.5294 100.744C49.9953 100.939 50.6165 100.795 50.8639 100.353" stroke="#002E55" stroke-width="0.48" stroke-miterlimit="10"/>
<path d="M54.3091 258.622L55.8276 271.677C55.8276 271.677 59.3937 275.59 61.2573 273.312C62.1891 272.17 65.1627 270.879 65.6114 270.208C64.5933 269.645 62.1603 268.01 62.1603 268.01L62.724 258.364L54.3091 258.622Z" fill="#F07F58"/>
<path d="M59.1925 258.955L59.0487 261.692C59.0487 261.692 55.8277 272.245 55.5401 271L54.5105 259.598L59.1867 258.955H59.1925Z" fill="#C2542D"/>
<path d="M62.2755 267.786L71.2195 273.605C71.5992 273.886 71.3288 274.362 70.7824 274.368C70.7824 274.368 54.6773 274.276 54.6543 274.041C54.5105 272.583 55.2065 269.531 55.2065 269.324C55.2065 268.561 57.536 270.776 59.1235 271.224C59.969 270.931 62.0281 267.603 62.2812 267.792L62.2755 267.786Z" fill="#FFE3A6"/>
<path d="M19.4359 258.817L16.2954 270.495C16.2954 270.495 20.0283 275.596 21.8919 273.318C22.8237 272.176 25.7974 270.885 26.246 270.214C25.228 269.651 22.7949 268.016 22.7949 268.016L26.3036 258.651L19.4301 258.823L19.4359 258.817Z" fill="#F07F58"/>
<path d="M22.0646 258.645L21.8978 259.661C21.8978 259.661 16.4681 272.245 16.1863 271L18.1649 258.645H22.0646Z" fill="#C2542D"/>
<path d="M22.91 267.786L31.8541 273.605C32.2337 273.886 31.9634 274.362 31.417 274.368C31.417 274.368 14.0235 274.116 14.0005 273.886C14.7655 272.027 15.6398 268.102 16.5715 266.581C16.6751 266.415 17.8427 269.192 19.4302 269.645C20.2757 269.353 22.657 267.608 22.91 267.798V267.786Z" fill="#FFE3A6"/>
<path d="M39.1703 141.314C35.7537 147.339 33.9477 151.752 31.9863 159.412C29.7086 168.295 12.735 243.433 11.6594 259.592C14.4663 260.269 31.946 259.816 33.7176 259.718C37.1112 243.743 47.7463 186.83 50.1678 176.667C50.5416 175.107 53.176 175.491 52.7676 177.04C49.1554 190.847 46.8145 242.411 45.457 260.017C50.0355 260.269 62.9023 259.569 64.599 259.357C66.4454 239.462 75.8726 165.242 61.0674 140.826C54.2976 139.896 46.0322 141.113 39.1646 141.314H39.1703Z" fill="#002E55"/>
<g opacity="0.48">
<path d="M41.8852 218.201C42.4834 215.108 43.0816 212.021 43.6683 209.003C34.8507 209.479 33.5508 218.431 34.3848 225.701C34.8622 229.879 35.9781 234.607 37.8819 238.877C39.0611 232.823 40.3437 226.172 41.6321 219.521C41.6034 219.074 41.6839 218.62 41.8852 218.201Z" fill="#005BA8"/>
<path d="M66.1234 174.378C66.9574 177.058 67.9064 179.709 69.1373 182.216C68.8497 172.473 68.0157 163.24 66.3419 155.464C61.2228 158.775 64.7372 169.954 66.1234 174.378Z" fill="#005BA8"/>
<path d="M55.2811 203.15C56.9664 197.515 54.5449 192.488 50.8695 188.391C50.0297 195.242 49.2762 203.856 48.6033 212.83C51.6057 210.162 54.1423 206.966 55.2869 203.15H55.2811Z" fill="#005BA8"/>
<path d="M57.0124 237.207C57.2253 243.806 60.6073 250.158 65.0362 254.967C65.8012 247.415 67.0263 235.939 67.9639 222.981C61.1825 225.019 56.7766 229.902 57.0124 237.207Z" fill="#005BA8"/>
<path d="M35.3051 187.886C36.398 183.335 36.513 177.924 35.3109 173.385C34.4711 170.195 32.7916 167.434 30.6232 165.059C28.7136 173.224 25.366 188.081 22.0012 203.787C28.3512 200.298 33.5163 195.311 35.2994 187.886H35.3051Z" fill="#005BA8"/>
</g>
<path d="M60.1874 143.465C60.1874 143.465 66.2211 158.356 66.2211 179.37C66.2211 200.384 60.0781 253.372 60.0781 253.372" stroke="white" stroke-width="0.46" stroke-miterlimit="10"/>
<path d="M18.7976 251.478L42.5065 142.783" stroke="white" stroke-width="0.46" stroke-miterlimit="10"/>
<path d="M46.7339 143.368C46.7339 143.368 46.5268 162.62 37.8704 161.099" stroke="white" stroke-width="0.46" stroke-miterlimit="10"/>
<path d="M66.7389 161.599C58.0767 163.119 57.4382 144.349 57.4382 144.349" stroke="white" stroke-width="0.46" stroke-miterlimit="10"/>
<path d="M46.4177 252.746L64.835 253.377" stroke="white" stroke-width="0.46" stroke-miterlimit="10"/>
<path d="M12.1887 251.432L35.6216 252.425" stroke="white" stroke-width="0.46" stroke-miterlimit="10"/>
<path d="M74.8315 129.395C74.9178 129.768 83.5973 120.65 83.5973 120.65C83.5973 120.65 91.322 110.459 91.8626 111.038C92.6449 111.882 89.6482 116.427 89.6482 116.427C89.6482 116.427 89.8438 116.949 90.4304 117.207C91.0171 117.465 91.3392 117.855 91.5348 118.636C91.7303 119.416 92.5126 119.869 92.6391 120.323C92.7714 120.776 89.861 124.196 88.216 125.39C88.216 125.39 85.4091 129.275 81.6417 133.969" fill="#F07F58"/>
<path d="M83.8562 120.587C83.8562 120.587 85.4207 116.174 86.0706 116.3C86.7206 116.432 89.585 117.666 89.5217 118.768C89.4585 119.87 86.9852 118.963 86.9852 118.963C86.9852 118.963 87.4396 121.43 86.2029 121.757C84.9663 122.084 83.8619 120.587 83.8619 120.587H83.8562Z" fill="#F07F58"/>
<path d="M87.6409 119.25C87.6409 119.25 87.5604 119.91 88.4692 120.105C88.4692 120.105 88.6705 121.499 89.8439 121.241C89.8439 121.241 89.6368 121.912 90.35 122.044C90.35 122.044 87.1808 125.418 87.6352 119.25H87.6409Z" fill="#C2542D"/>
<path d="M87.1175 116.616C88.055 116.954 88.9925 117.276 89.8553 117.798C90.0049 117.913 90.1659 118.05 90.2464 118.297C90.3327 118.55 90.2177 118.848 90.0566 118.997C89.3837 119.583 88.4289 119.514 87.6581 119.479C87.6351 119.41 87.6581 119.64 87.6754 119.795C87.6696 120.11 87.7904 120.512 87.7099 120.782L87.5258 119.824L87.4798 119.583C87.382 119.233 87.8019 119.255 88.0205 119.267C88.6992 119.336 90.7411 118.94 89.6943 118.01C89.1536 117.649 87.6984 116.972 87.106 116.645L87.1175 116.616Z" fill="#C2542D"/>
<path d="M89.7229 116.312C89.6712 116.845 89.2455 117.247 88.7164 117.327L88.6934 117.31C89.0212 116.995 89.3663 116.535 89.7172 116.317L89.7229 116.312Z" fill="#C2542D"/>
<path d="M91.046 117.947C90.7584 118.768 88.5095 121.057 87.7617 119.869L87.7847 119.852C88.3369 120.409 89.0559 119.64 89.5333 119.319C90.0854 118.94 90.5859 118.349 91.046 117.947Z" fill="#C2542D"/>
<path d="M88.5036 120.065C88.8085 120.834 89.2283 121.252 89.9531 120.656C90.5628 120.248 91.1034 119.514 91.7419 119.164C91.0977 119.835 90.0854 121.557 89.004 121.098C88.6417 120.879 88.5496 120.438 88.4749 120.065H88.5036Z" fill="#C2542D"/>
<path d="M89.9474 121.109C90.0625 121.344 90.166 121.551 90.3558 121.62C90.6722 121.694 90.908 121.602 91.2703 121.551C91.5119 121.545 91.6327 121.516 91.857 121.419L91.88 121.436C91.7477 121.608 91.5464 121.729 91.3394 121.769C90.9597 121.895 90.4248 122.079 90.1085 121.717C90.0164 121.631 89.8496 121.132 89.9532 121.103L89.9474 121.109Z" fill="#C2542D"/>
<path d="M57.0355 108.932C57.0355 108.932 63.1036 108.473 64.9154 112.157C66.7215 115.841 70.4199 129.998 70.4199 129.998L82.4642 120.518L88.4001 130.336C88.4001 130.336 70.9031 150.03 66.3419 148.618C61.7865 147.207 56.9779 113.953 57.0297 108.932H57.0355Z" fill="#4F6EE0"/>
<path d="M64.8349 112.014C62.9425 108.485 57.0354 108.932 57.0354 108.932L60.4347 114.28C61.9014 113.517 63.3681 112.765 64.8349 112.014Z" fill="#F07F58"/>
<path d="M56.4373 107.968C57.3576 108.886 65.3814 124.11 65.5769 128.787C65.7897 133.963 64.6221 146.524 64.6221 146.524C64.6221 146.524 37.4218 146.736 36.8927 146.949C35.3684 133.068 35.679 114.998 39.4119 112.8C39.4119 112.8 45.5491 106.585 46.6075 105.943C46.6075 105.943 55.6953 111.187 56.4315 107.968H56.4373Z" fill="#4F6EE0"/>
<path d="M41.2295 114.791C40.5565 115.462 39.4177 112.794 39.4177 112.794C35.6847 114.992 35.3684 133.062 36.8984 146.943C37.4275 146.731 64.6278 146.518 64.6278 146.518C64.6278 146.518 64.8637 143.999 65.0995 140.757C56.9204 131.053 49.5466 124.374 41.2352 114.785L41.2295 114.791Z" fill="#3752B8"/>
<path d="M70.0863 130.652L71.0181 117.299C71.0584 116.69 71.3747 116.134 71.8694 115.772L78.553 110.969C79.3812 110.373 80.2843 111.159 80.1692 112.174L79.1339 123.203C79.0706 123.938 78.7083 124.604 78.1446 125.045L71.0929 130.749C70.8686 130.922 70.0576 130.939 70.0806 130.646L70.0863 130.652Z" fill="white"/>
<path d="M70.8916 130.95L71.8637 117.086C71.8982 116.622 72.1397 116.191 72.5136 115.916L79.2317 111.17C79.7379 110.814 80.3073 111.337 80.2728 111.956L79.1742 123.41C79.0764 124.19 78.9671 124.569 78.3574 125.068C76.2293 126.807 70.8801 131.18 70.8974 130.956L70.8916 130.95Z" fill="#FDC500"/>
<path d="M78.7314 113.638C78.6854 113.827 78.7602 114.005 78.8924 114.039C79.0247 114.068 79.1685 113.942 79.2088 113.752C79.2548 113.563 79.18 113.385 79.0477 113.351C78.9155 113.316 78.7717 113.448 78.7314 113.638Z" fill="#231F61"/>
<path d="M78.6336 113.615C78.5704 113.884 78.6739 114.137 78.8579 114.177C79.042 114.217 79.2433 114.034 79.3066 113.77C79.3699 113.5 79.2663 113.247 79.0823 113.207C78.8982 113.167 78.6969 113.351 78.6336 113.615Z" stroke="#231F61" stroke-width="0.06" stroke-miterlimit="10"/>
<path d="M71.4725 117.809L71.4495 117.798C71.3287 117.735 71.1791 117.815 71.1676 117.959L71.0583 119.646C71.0583 119.72 71.0929 119.795 71.1619 119.829C71.2827 119.892 71.4322 119.812 71.4437 119.674L71.576 117.999C71.5818 117.924 71.5415 117.85 71.4725 117.815V117.809Z" stroke="#37578A" stroke-width="0.13" stroke-miterlimit="10"/>
<path d="M71.3057 120.22L71.2827 120.208C71.1619 120.145 71.0124 120.225 71.0009 120.369L70.8916 122.056C70.8916 122.13 70.9261 122.205 70.9951 122.239C71.1159 122.303 71.2655 122.222 71.277 122.084L71.4093 120.409C71.415 120.334 71.3748 120.26 71.3057 120.225V120.22Z" stroke="#37578A" stroke-width="0.13" stroke-miterlimit="10"/>
<path d="M70.6386 122.159L71.6222 123.531L70.2705 125.505L70.6386 122.159Z" fill="#020E2B"/>
<path d="M66.8998 139.139C73.9515 131.461 77.6269 125.872 78.3459 124.868C78.7542 124.294 79.8011 122.44 79.6285 122.211C79.2316 121.683 77.0747 125.361 77.0977 125.143C77.1265 124.925 80.0081 120.977 79.6975 120.541C79.2316 119.887 76.0969 124.345 76.0394 124.42C75.1881 125.522 79.2086 120.271 78.9958 119.743C78.783 119.215 76.7814 121.488 76.7123 121.562C76.7123 121.562 75.1133 123.605 74.9408 123.519C74.7682 123.433 77.0805 118.137 76.4708 118.177C75.8611 118.223 73.7962 121.878 73.267 122.676C72.7321 123.473 71.691 124.374 71.2884 124.403C70.949 124.431 70.3451 123.071 70.5061 122.274C70.5061 122.274 69.2465 124.403 69.0855 125.981C68.9992 126.813 69.0624 127.829 69.0624 127.829L63.0806 134.129L66.9113 139.139H66.8998Z" fill="#F07F58"/>
<path d="M45.3996 117.471C45.3996 117.471 41.8278 110.396 38.9288 113.236C34.0226 118.045 36.7086 135.128 51.0882 150.128C55.7586 155 74.0321 134.003 74.0321 134.003L66.9344 127.06L56.7767 137.165L45.3996 117.471Z" fill="#4F6EE0"/>
<path d="M45.25 117.201C44.554 115.933 41.4768 110.734 38.923 113.236C37.0019 115.118 36.2542 118.888 36.9041 123.674C39.6247 121.436 42.4086 119.284 45.25 117.201Z" fill="#F07F58"/>
<path d="M64.9328 269.479L63.1267 272.526" stroke="#003B69" stroke-width="0.44" stroke-miterlimit="10"/>
<path d="M63.8055 268.802L61.9937 271.849" stroke="#003B69" stroke-width="0.44" stroke-miterlimit="10"/>
<path d="M25.573 269.479L23.7612 272.526" stroke="#003B69" stroke-width="0.44" stroke-miterlimit="10"/>
<path d="M24.44 268.802L22.6282 271.849" stroke="#003B69" stroke-width="0.44" stroke-miterlimit="10"/>
<path d="M10.2332 260.091L11.9529 247.817L36.8007 248.31L35.5699 260.338L10.2332 260.091Z" fill="#4F6EE0"/>
<path d="M19.8213 257.463C16.1286 255.013 13.5058 251.759 11.9241 248.018L10.2273 260.091L25.1935 260.235C23.3127 259.494 21.5008 258.582 19.8156 257.463H19.8213Z" fill="#3752B8"/>
<path d="M42.7078 260.091L44.4276 247.817L69.2753 248.31L68.0445 260.338L42.7078 260.091Z" fill="#4F6EE0"/>
<path d="M50.95 255.173C48.6205 253.188 46.872 250.629 45.5548 247.84L44.4332 247.817L42.7422 260.011C44.0421 260.269 60.8834 260.263 60.8834 260.263C57.277 259.213 53.8087 257.606 50.9558 255.168L50.95 255.173Z" fill="#3752B8"/>
</g>
<defs>
<linearGradient id="paint0_linear_492_9488" x1="156.058" y1="17.0893" x2="156.058" y2="305.19" gradientUnits="userSpaceOnUse">
<stop stop-color="#382F73" stop-opacity="0.26"/>
<stop offset="1" stop-color="#382F73" stop-opacity="0"/>
</linearGradient>
<linearGradient id="paint1_linear_492_9488" x1="200.578" y1="263.11" x2="276.53" y2="263.11" gradientUnits="userSpaceOnUse">
<stop stop-color="white"/>
<stop offset="1" stop-color="#231F20"/>
</linearGradient>
<linearGradient id="paint2_linear_492_9488" x1="143.203" y1="264.521" x2="222.728" y2="264.521" gradientUnits="userSpaceOnUse">
<stop stop-color="white"/>
<stop offset="1" stop-color="#231F20"/>
</linearGradient>
<linearGradient id="paint3_linear_492_9488" x1="80.9572" y1="262.605" x2="156.91" y2="262.605" gradientUnits="userSpaceOnUse">
<stop stop-color="white"/>
<stop offset="1" stop-color="#231F20"/>
</linearGradient>
<linearGradient id="paint4_linear_492_9488" x1="0.345703" y1="274.397" x2="72.2663" y2="274.397" gradientUnits="userSpaceOnUse">
<stop stop-color="white"/>
<stop offset="1" stop-color="#231F20"/>
</linearGradient>
<clipPath id="clip0_492_9488">
<rect width="309.654" height="234.944" fill="white" transform="translate(0.345703 41.5127)"/>
</clipPath>
</defs>
</svg>
