<svg width="14" height="14" viewBox="0 0 14 14" fill="none" xmlns="http://www.w3.org/2000/svg">
<g id="rocket">
<path id="Vector" d="M9.1426 8.47958C9.25574 8.95834 9.25908 9.45649 9.15236 9.93672C9.04564 10.417 8.83162 10.8668 8.52635 11.2526C8.22108 11.6383 7.83247 11.95 7.38963 12.1643C6.94679 12.3785 6.46121 12.4898 5.96926 12.4897V9.8815M9.1426 8.47958C10.1804 7.72362 11.0246 6.73289 11.6064 5.58831C12.1881 4.44373 12.4908 3.17776 12.4898 1.89383C11.206 1.8929 9.94012 2.19567 8.79564 2.7774C7.65115 3.35913 6.66051 4.20333 5.9046 5.24105M9.1426 8.47958C8.19815 9.17037 7.11596 9.64862 5.96926 9.8815M5.96926 9.8815C5.91329 9.89291 5.85678 9.90378 5.80027 9.9141C5.30731 9.52321 4.86098 9.07687 4.47008 8.58391C4.48035 8.52729 4.49067 8.47077 4.50214 8.41438M5.9046 5.24105C5.42581 5.1278 4.92759 5.12439 4.4473 5.23107C3.967 5.33775 3.51707 5.55174 3.13123 5.85703C2.7454 6.16231 2.43366 6.55096 2.21938 6.99384C2.0051 7.43673 1.89383 7.92238 1.89392 8.41438H4.50214M5.9046 5.24105C5.2139 6.18534 4.73512 7.26787 4.50214 8.41438M3.28551 9.71305C2.92807 9.97886 2.65016 10.3374 2.48187 10.7498C2.31358 11.1622 2.26134 11.6129 2.3308 12.0528C2.77084 12.1222 3.22148 12.0699 3.63392 11.9015C4.04635 11.7331 4.40485 11.4551 4.67059 11.0976M9.63707 5.56164C9.63707 5.77781 9.5512 5.98512 9.39834 6.13798C9.24549 6.29083 9.03817 6.37671 8.822 6.37671C8.60583 6.37671 8.39852 6.29083 8.24566 6.13798C8.09281 5.98512 8.00693 5.77781 8.00693 5.56164C8.00693 5.34547 8.09281 5.13815 8.24566 4.9853C8.39852 4.83244 8.60583 4.74657 8.822 4.74657C9.03817 4.74657 9.24549 4.83244 9.39834 4.9853C9.5512 5.13815 9.63707 5.34547 9.63707 5.56164Z" stroke="#AFACC7" stroke-width="0.8" stroke-linecap="round" stroke-linejoin="round"/>
</g>
</svg>
