<svg width="23" height="22" viewBox="0 0 23 22" fill="none" xmlns="http://www.w3.org/2000/svg">
<g id="Scan">
<path id="Vector" d="M9.19931 0.885804C9.19931 0.397051 8.8022 -6.10352e-05 8.31345 -6.10352e-05H1.13794C0.649187 -6.10352e-05 0.252075 0.397051 0.252075 0.885804V8.06131C0.252075 8.55006 0.649187 8.94718 1.13794 8.94718C1.62669 8.94718 2.02381 8.55006 2.02381 8.06131V2.65753C2.02381 2.16878 2.42092 1.77167 2.90967 1.77167H8.31345C8.8022 1.77167 9.19931 1.37456 9.19931 0.885804Z" fill="#B7C1FA"/>
<path id="Vector_2" d="M21.3633 8.94718C21.852 8.94718 22.2491 8.55006 22.2491 8.06131V0.885804C22.2491 0.397051 21.852 -6.10352e-05 21.3633 -6.10352e-05H14.1877C13.699 -6.10352e-05 13.3019 0.397051 13.3019 0.885804C13.3019 1.37456 13.699 1.77167 14.1877 1.77167H19.5915C20.0803 1.77167 20.4774 2.16878 20.4774 2.65753V8.06131C20.4774 8.55006 20.8745 8.94718 21.3633 8.94718Z" fill="#B7C1FA"/>
<path id="Vector_3" d="M13.3048 21.111C13.3048 21.5998 13.7019 21.9969 14.1907 21.9969H21.3662C21.8549 21.9969 22.252 21.5998 22.252 21.111V13.9355C22.252 13.4468 21.8549 13.0496 21.3662 13.0496C20.8774 13.0496 20.4803 13.4468 20.4803 13.9355V19.3393C20.4803 19.828 20.0832 20.2252 19.5945 20.2252H14.1907C13.7019 20.2252 13.3048 20.6223 13.3048 21.111Z" fill="#B7C1FA"/>
<path id="Vector_4" d="M1.13794 13.0527C0.649187 13.0527 0.252075 13.4498 0.252075 13.9386V21.1141C0.252075 21.6028 0.649187 21.9999 1.13794 21.9999H8.31345C8.8022 21.9999 9.19931 21.6028 9.19931 21.1141C9.19931 20.6253 8.8022 20.2282 8.31345 20.2282H2.90967C2.42092 20.2282 2.02381 19.8311 2.02381 19.3423V13.9386C2.02381 13.4498 1.62669 13.0527 1.13794 13.0527Z" fill="#B7C1FA"/>
<path id="Vector_5" d="M13.5585 6.9494H8.9459C7.98258 6.9494 7.20166 7.73032 7.20166 8.69364V13.3062C7.20166 14.2696 7.98258 15.0505 8.9459 15.0505H13.5585C14.5218 15.0505 15.3027 14.2696 15.3027 13.3062V8.69364C15.3027 7.73032 14.5218 6.9494 13.5585 6.9494Z" fill="#B7C1FA"/>
</g>
</svg>
